<svg xmlns="http://www.w3.org/2000/svg" width="114" height="114" viewBox="0 0 114 114" fill="none">
  <g filter="url(#filter0_d_1_4805)">
    <circle cx="57" cy="57" r="32" fill="#E5EDFF"/>
  </g>
  <path d="M76.1111 37.8889H37.8889V76.1111H76.1111V37.8889Z" fill="#E5EDFF"/>
  <path d="M70.1392 48.6392H43.8614C43.2018 48.6392 42.667 49.1739 42.667 49.8336V68.9447C42.667 69.6044 43.2018 70.1392 43.8614 70.1392H70.1392C70.7989 70.1392 71.3337 69.6044 71.3337 68.9447V49.8336C71.3337 49.1739 70.7989 48.6392 70.1392 48.6392Z" fill="#E5EDFF" stroke="#758AA7" stroke-width="2" stroke-linecap="round" stroke-linejoin="round"/>
  <path d="M63.0002 69.0002V46.273C63.0002 45.6702 62.7474 45.0921 62.2973 44.6659C61.8472 44.2397 61.2368 44.0002 60.6002 44.0002H53.4002C52.7637 44.0002 52.1533 44.2397 51.7032 44.6659C51.2531 45.0921 51.0002 45.6702 51.0002 46.273V69.0002" stroke="#758AA7" stroke-width="2" stroke-linecap="round" stroke-linejoin="round"/>
  <defs>
    <filter id="filter0_d_1_4805" x="0" y="0" width="114" height="114" filterUnits="userSpaceOnUse" color-interpolation-filters="sRGB">
      <feFlood flood-opacity="0" result="BackgroundImageFix"/>
      <feColorMatrix in="SourceAlpha" type="matrix" values="0 0 0 0 0 0 0 0 0 0 0 0 0 0 0 0 0 0 127 0" result="hardAlpha"/>
      <feMorphology radius="11" operator="dilate" in="SourceAlpha" result="effect1_dropShadow_1_4805"/>
      <feOffset/>
      <feGaussianBlur stdDeviation="7"/>
      <feComposite in2="hardAlpha" operator="out"/>
      <feColorMatrix type="matrix" values="0 0 0 0 0.945833 0 0 0 0 0.945833 0 0 0 0 0.945833 0 0 0 0.44 0"/>
      <feBlend mode="multiply" in2="BackgroundImageFix" result="effect1_dropShadow_1_4805"/>
      <feBlend mode="normal" in="SourceGraphic" in2="effect1_dropShadow_1_4805" result="shape"/>
    </filter>
  </defs>
</svg>