<svg xmlns="http://www.w3.org/2000/svg" width="114" height="114" viewBox="0 0 114 114" fill="none">
  <g filter="url(#filter0_d_1_4835)">
    <circle cx="57" cy="57" r="32" fill="#E5EDFF"/>
  </g>
  <path d="M75.9573 37.4436H37.7351V75.6658H75.9573V37.4436Z" fill="#E5EDFF"/>
  <path d="M56.846 64.3177C60.1444 64.3177 62.8182 61.6439 62.8182 58.3455C62.8182 55.0471 60.1444 52.3733 56.846 52.3733C53.5476 52.3733 50.8738 55.0471 50.8738 58.3455C50.8738 61.6439 53.5476 64.3177 56.846 64.3177Z" fill="#E5EDFF" stroke="#758AA7" stroke-width="2" stroke-linecap="round" stroke-linejoin="round"/>
  <path d="M66.9988 54.7639C68.3899 54.7616 69.7624 55.0844 71.0066 55.7065C72.2509 56.3287 73.3326 57.2329 74.1654 58.3473" fill="#E5EDFF"/>
  <path d="M66.9988 54.7639C68.3899 54.7616 69.7624 55.0844 71.0067 55.7065C72.2509 56.3287 73.3326 57.2329 74.1654 58.3473" stroke="#758AA7" stroke-width="2" stroke-linecap="round" stroke-linejoin="round"/>
  <path d="M39.5266 58.3473C40.3594 57.2329 41.4411 56.3287 42.6854 55.7065C43.9297 55.0844 45.3021 54.7616 46.6933 54.7639" fill="#E5EDFF"/>
  <path d="M39.5266 58.3473C40.3594 57.2329 41.4411 56.3287 42.6854 55.7065C43.9297 55.0844 45.3021 54.7616 46.6933 54.7639" stroke="#758AA7" stroke-width="2" stroke-linecap="round" stroke-linejoin="round"/>
  <path d="M48.2463 69.6937C49.0329 68.0828 50.2561 66.7252 51.7766 65.7756C53.2971 64.826 55.0537 64.3225 56.8463 64.3225C58.639 64.3225 60.3956 64.826 61.9161 65.7756C63.4366 66.7252 64.6598 68.0828 65.4463 69.6937" fill="#E5EDFF"/>
  <path d="M48.2463 69.6937C49.0329 68.0828 50.2561 66.7252 51.7766 65.7756C53.2971 64.826 55.0537 64.3225 56.8463 64.3225C58.639 64.3225 60.3956 64.826 61.9161 65.7756C63.4366 66.7252 64.6598 68.0828 65.4463 69.6937" stroke="#758AA7" stroke-width="2" stroke-linecap="round" stroke-linejoin="round"/>
  <path d="M46.6935 54.7631C45.7867 54.764 44.8983 54.5068 44.1323 54.0216C43.3662 53.5364 42.754 52.8432 42.3672 52.023C41.9805 51.2028 41.8351 50.2894 41.9482 49.3897C42.0612 48.49 42.428 47.641 43.0056 46.9419C43.5832 46.2429 44.3479 45.7227 45.2102 45.442C46.0725 45.1614 46.9969 45.132 47.8753 45.3572C48.7537 45.5824 49.5498 46.053 50.1708 46.7139C50.7917 47.3748 51.2117 48.1987 51.3817 49.0895" fill="#E5EDFF"/>
  <path d="M46.6935 54.7631C45.7867 54.764 44.8983 54.5068 44.1323 54.0216C43.3662 53.5364 42.754 52.8432 42.3672 52.023C41.9805 51.2028 41.8351 50.2894 41.9482 49.3897C42.0612 48.49 42.428 47.641 43.0056 46.9419C43.5832 46.2429 44.3479 45.7227 45.2102 45.442C46.0725 45.1614 46.9969 45.132 47.8753 45.3572C48.7537 45.5824 49.5498 46.053 50.1708 46.7139C50.7917 47.3748 51.2117 48.1987 51.3817 49.0895" stroke="#758AA7" stroke-width="2" stroke-linecap="round" stroke-linejoin="round"/>
  <path d="M62.3105 49.0895C62.4806 48.1987 62.9006 47.3748 63.5215 46.7139C64.1424 46.053 64.9386 45.5824 65.817 45.3572C66.6954 45.132 67.6198 45.1614 68.4821 45.442C69.3444 45.7227 70.109 46.2429 70.6867 46.9419C71.2643 47.641 71.6311 48.49 71.7441 49.3897C71.8571 50.2894 71.7118 51.2028 71.325 52.023C70.9383 52.8432 70.3261 53.5364 69.56 54.0216C68.7939 54.5068 67.9056 54.764 66.9987 54.7631" fill="#E5EDFF"/>
  <path d="M62.3105 49.0895C62.4806 48.1987 62.9006 47.3748 63.5215 46.7139C64.1424 46.053 64.9386 45.5824 65.817 45.3572C66.6954 45.132 67.6198 45.1614 68.4821 45.442C69.3444 45.7227 70.109 46.2429 70.6867 46.9419C71.2643 47.641 71.6311 48.49 71.7441 49.3897C71.8571 50.2894 71.7118 51.2028 71.325 52.023C70.9383 52.8432 70.3261 53.5364 69.56 54.0216C68.7939 54.5068 67.9056 54.764 66.9987 54.7631" stroke="#758AA7" stroke-width="2" stroke-linecap="round" stroke-linejoin="round"/>
  <defs>
    <filter id="filter0_d_1_4835" x="0" y="0" width="114" height="114" filterUnits="userSpaceOnUse" color-interpolation-filters="sRGB">
      <feFlood flood-opacity="0" result="BackgroundImageFix"/>
      <feColorMatrix in="SourceAlpha" type="matrix" values="0 0 0 0 0 0 0 0 0 0 0 0 0 0 0 0 0 0 127 0" result="hardAlpha"/>
      <feMorphology radius="11" operator="dilate" in="SourceAlpha" result="effect1_dropShadow_1_4835"/>
      <feOffset/>
      <feGaussianBlur stdDeviation="7"/>
      <feComposite in2="hardAlpha" operator="out"/>
      <feColorMatrix type="matrix" values="0 0 0 0 0.945833 0 0 0 0 0.945833 0 0 0 0 0.945833 0 0 0 0.44 0"/>
      <feBlend mode="multiply" in2="BackgroundImageFix" result="effect1_dropShadow_1_4835"/>
      <feBlend mode="normal" in="SourceGraphic" in2="effect1_dropShadow_1_4835" result="shape"/>
    </filter>
  </defs>
</svg>