<svg xmlns="http://www.w3.org/2000/svg" width="106" height="32" viewBox="0 0 106 32" fill="none">
  <path d="M19.392 20.6683L17.2673 18.5564C16.5348 17.8302 15.3552 17.8302 14.6258 18.5564L12.8785 20.2909L12.5107 20.681L2.28389 30.9078C1.90018 31.2915 2.1729 31.9479 2.71516 31.9479H6.34924C7.48132 31.9479 8.56584 31.4976 9.36496 30.6985L15.9482 24.1153L18.0855 26.2526C18.9036 27.0708 20.0135 27.5306 21.171 27.5306H26.232L19.3825 20.681L19.392 20.6683Z" fill="url(#paint0_linear_560_15451)"/>
  <path d="M12.497 11.3375L14.6249 13.4494C15.3542 14.1756 16.5339 14.1756 17.2632 13.4494L19.0105 11.7148L19.3783 11.3248L29.6051 1.09798C29.9888 0.714276 29.7161 0.0546875 29.1739 0.0546875H25.581C24.4267 0.0546875 23.3168 0.514497 22.5019 1.32947L15.944 7.8873L13.7782 5.72144C12.9791 4.92232 11.8945 4.47203 10.7656 4.47203H5.66016L12.5097 11.3216L12.497 11.3375Z" fill="url(#paint1_linear_560_15451)"/>
  <path d="M7.83261 16.003L5.6826 18.153C4.87397 18.9616 4.41734 20.062 4.41734 21.2068V26.2869L11.2669 19.4373L11.2796 19.45L13.3979 17.3158C14.1241 16.5833 14.1241 15.4005 13.3915 14.6711L1.03377 2.33239C0.65324 1.95186 0 2.2214 0 2.76049V6.37237C0 7.53299 0.45029 8.62068 1.2716 9.44199L7.83261 16.003Z" fill="url(#paint2_linear_560_15451)"/>
  <path d="M30.6364 22.5768L24.0944 16.0031L26.2666 13.8214C27.053 13.0318 27.4938 11.96 27.4938 10.8469V5.71289L20.6728 12.5656L20.6601 12.553L18.5735 14.6649C17.8537 15.3911 17.8505 16.5612 18.564 17.2937L20.6633 19.4501L20.676 19.4374L30.8806 29.6896C31.2547 30.0638 31.8921 29.8006 31.8921 29.271V25.6147C31.889 24.4668 31.4418 23.3886 30.6364 22.5768Z" fill="url(#paint3_linear_560_15451)"/>
  <path d="M43.1116 22.5H41.0716V11.26L41.3916 11.58H37.9916V9.8H46.2116V11.58H42.8116L43.1116 11.26V22.5ZM54.7561 22.5H47.4361V9.8H54.6561V11.58H49.1561L49.4761 11.26V15.48L49.1561 15.16H54.2761V16.92H49.1561L49.4761 16.62V21.04L49.1561 20.72H54.7561V22.5ZM63.0116 11.48H58.8316V20.82H63.0116C63.1849 20.82 63.2716 20.7333 63.2716 20.56V11.74C63.2716 11.5667 63.1849 11.48 63.0116 11.48ZM56.7916 22.5V9.8L62.3316 9.7C63.3583 9.67333 64.1183 9.88667 64.6116 10.34C65.1049 10.78 65.3516 11.4867 65.3516 12.46V19.84C65.3516 20.8133 65.0983 21.52 64.5916 21.96C64.0849 22.4 63.3183 22.6133 62.2916 22.6L56.7916 22.5ZM77.0458 22.5H75.0058L74.2458 19.12L74.4858 19.32H69.2058L69.4458 19.12L68.5858 22.5H66.6858L69.5658 11.8C69.7258 11.2533 69.8858 10.8333 70.0458 10.54C70.2058 10.2333 70.4325 10.02 70.7258 9.9C71.0325 9.78 71.4525 9.72667 71.9858 9.74L74.0658 9.8L77.0458 22.5ZM71.3458 11.78L69.7858 17.78L69.6258 17.58H74.1058L73.9458 17.78L72.5258 11.56H71.5858C71.5058 11.56 71.4525 11.58 71.4258 11.62C71.3992 11.6467 71.3725 11.7 71.3458 11.78ZM85.2875 20.72V22.5H78.6275V9.8H80.6675V21.06L80.3275 20.72H85.2875ZM88.8763 22.5H86.8363V9.8H88.8763V22.5ZM99.0488 19.5V9.8H100.829V22.5H99.4088L93.1688 12.9L93.5488 12.78V22.5H91.7888V9.8H93.2088L99.4288 19.36L99.0488 19.5ZM105.79 22.5H103.75V9.8H105.79V22.5Z" fill="white"/>
  <defs>
    <linearGradient id="paint0_linear_560_15451" x1="9.26294" y1="33.2741" x2="19.9031" y2="23.5207" gradientUnits="userSpaceOnUse">
      <stop stop-color="#ACC5FF"/>
      <stop offset="1" stop-color="#497DC5"/>
    </linearGradient>
    <linearGradient id="paint1_linear_560_15451" x1="25.0927" y1="-3.08201" x2="12.3837" y2="8.14921" gradientUnits="userSpaceOnUse">
      <stop stop-color="#ACC5FF"/>
      <stop offset="1" stop-color="#497DC5"/>
    </linearGradient>
    <linearGradient id="paint2_linear_560_15451" x1="9.73787" y1="21.311" x2="-2.08446" y2="9.48871" gradientUnits="userSpaceOnUse">
      <stop stop-color="#05365F"/>
      <stop offset="1" stop-color="#497DC5"/>
    </linearGradient>
    <linearGradient id="paint3_linear_560_15451" x1="21.968" y1="10.3613" x2="35.1204" y2="24.5481" gradientUnits="userSpaceOnUse">
      <stop stop-color="#05365F"/>
      <stop offset="1" stop-color="#497DC5"/>
    </linearGradient>
  </defs>
</svg>