<svg xmlns="http://www.w3.org/2000/svg" width="158" height="56" viewBox="0 0 158 56" fill="none">
  <g clip-path="url(#clip0_139_9294)">
    <path d="M83.6886 33.9741C85.7905 34.2238 87.7855 34.4735 89.638 34.741V40.5372C88.6761 41.3219 87.1264 42.1423 84.9889 42.9983C82.8514 43.8544 79.8946 44.2646 76.1005 44.2646C73.7493 44.2646 71.8255 43.8722 70.3115 43.1053C68.7974 42.3385 68.0315 41.0366 68.0315 39.1996C68.0315 37.006 68.8509 35.5257 70.5074 34.7588C72.164 33.992 74.4618 33.5996 77.4365 33.5996C79.5027 33.6174 81.5689 33.7423 83.6886 33.9741Z" fill="#208FE2"/>
    <path d="M91.971 43.6585C91.971 44.1044 91.9176 44.5503 91.7751 44.9961C91.6504 45.442 91.3119 45.6738 90.7776 45.6738C90.3323 45.6738 90.0294 45.4776 89.8691 45.0675C89.7088 44.6573 89.6198 44.1579 89.6198 43.5337V41.9108C89.0676 42.4815 88.2482 43.0878 87.1794 43.712C86.1107 44.3362 84.7035 44.8713 82.9579 45.2993C81.2123 45.7273 79.0035 45.9413 76.3317 45.9413C74.3723 45.9413 72.5911 45.7095 70.9879 45.2636C69.3848 44.8178 68.1023 44.0866 67.1583 43.1057C66.2142 42.1069 65.7333 40.805 65.7333 39.1999C65.7333 37.3095 66.2498 35.8471 67.2651 34.777C68.2805 33.7248 69.652 32.9757 71.3976 32.5299C73.1254 32.1018 75.067 31.8878 77.2223 31.8878C79.6804 31.8878 82.0673 32.0305 84.3651 32.298C86.6629 32.5655 88.4263 32.9757 89.6554 33.5108C89.6554 30.9426 89.2101 29.0343 88.3194 27.7859C87.4288 26.5197 86.1641 25.6815 84.5432 25.2713C82.9223 24.8611 81.0163 24.6471 78.8254 24.6471C75.8329 24.6471 73.5707 24.8254 72.0745 25.1643C70.5783 25.5031 69.367 25.842 68.4408 26.1452C68.3339 26.1808 68.2448 26.1987 68.2092 26.1987C67.9776 26.1987 67.7639 26.0738 67.568 25.842C67.372 25.6101 67.283 25.3604 67.283 25.1108C67.283 24.8611 67.3898 24.6827 67.6214 24.5579C67.942 24.3974 69.0464 24.0942 70.9345 23.6483C72.8226 23.2025 75.7261 22.9706 79.6448 22.9706C82.0138 22.9706 84.1335 23.256 85.986 23.8267C87.8563 24.3974 89.3169 25.5031 90.3857 27.1439C91.4544 28.7847 91.9888 31.228 91.9888 34.456V43.6585H91.971ZM61.868 55.9108H96.2816V0.0356445H61.868V55.9108Z" fill="#208FE2"/>
    <path d="M5.70607 26.5373C7.68325 25.3068 10.4442 24.6825 14.0067 24.6825C16.536 24.6825 18.5667 25.0036 20.063 25.6278C21.5592 26.2698 22.6458 27.108 23.287 28.1603C23.9461 29.2125 24.2667 30.3717 24.2667 31.6736V33.029H2.51764C2.66014 29.9437 3.72889 27.7679 5.70607 26.5373ZM24.8901 41.1437C24.8011 41.1437 24.712 41.1615 24.6586 41.1972C24.2311 41.4825 23.572 41.8749 22.6814 42.3743C21.7908 42.8736 20.6151 43.3017 19.1723 43.7119C17.7116 44.1042 15.9126 44.3004 13.7573 44.3004C10.1057 44.3004 7.327 43.6048 5.43888 42.2138C3.55076 40.8405 2.55326 38.2367 2.48201 34.4558L25.2642 34.7411C25.4245 34.7411 25.567 34.3845 25.7273 33.6889C25.8876 32.9934 25.9589 32.3692 25.9589 31.852C25.9589 28.9985 24.9614 26.8048 22.9664 25.2889C20.9714 23.7552 17.9789 22.9883 13.9888 22.9883C11.406 22.9883 9.07262 23.3271 6.98856 24.0227C4.88669 24.7182 3.23014 25.8953 2.01889 27.5717C0.789828 29.2482 0.184204 31.5845 0.184204 34.5628C0.184204 38.1654 1.25295 40.9654 3.39045 42.9806C5.52794 44.9959 9.00137 45.9947 13.8107 45.9947C16.3401 45.9947 18.442 45.7628 20.0808 45.2813C21.7195 44.8176 22.9842 44.3004 23.857 43.7475C24.7298 43.1947 25.282 42.8201 25.4779 42.6061C25.6739 42.4634 25.7629 42.3029 25.7629 42.0889C25.7629 41.8571 25.6739 41.6431 25.4958 41.4469C25.2998 41.2507 25.1039 41.1437 24.8901 41.1437Z" fill="black"/>
    <path d="M47.2804 34.5099L57.3978 25.5214C57.7541 25.1825 57.95 24.8258 57.95 24.4513C57.95 23.8628 57.6294 23.5596 57.0059 23.5596C56.6319 23.5596 56.2578 23.7379 55.8481 24.0768L45.7307 33.0831L35.6132 24.0768C35.2391 23.7379 34.8473 23.5596 34.4376 23.5596C33.7963 23.5596 33.4935 23.8628 33.4935 24.4513C33.4935 24.8436 33.6895 25.2003 34.0635 25.5214L44.181 34.5099L34.1704 43.6589C33.7251 44.087 33.5113 44.4793 33.5113 44.8717C33.5113 45.4602 33.8142 45.7634 34.402 45.7634C34.8116 45.7634 35.2035 45.5672 35.6132 45.1927L45.7307 35.9545L55.8481 45.1927C56.2578 45.585 56.6497 45.7634 57.0594 45.7634C57.6294 45.7634 57.9322 45.478 57.9322 44.8895C57.9322 44.4615 57.7184 44.0513 57.2909 43.6411L47.2804 34.5099Z" fill="black"/>
    <path d="M102.962 14.1606C102.837 13.7326 102.552 13.5186 102.071 13.5186C101.501 13.5186 101.145 13.7326 101.02 14.1428C100.896 14.5529 100.825 15.0345 100.825 15.6052V43.7301C100.825 44.2473 100.878 44.7109 101.003 45.1033C101.127 45.4957 101.448 45.6918 102.018 45.6918C102.499 45.6918 102.802 45.4957 102.944 45.1033C103.087 44.7109 103.14 44.2294 103.14 43.6766V15.5338C103.14 15.0345 103.087 14.5708 102.962 14.1606Z" fill="black"/>
    <path d="M127.24 42.1962C127.026 42.1962 126.813 42.2498 126.581 42.3746C125.423 42.9988 124.408 43.4625 123.517 43.7835C122.627 44.1045 121.736 44.2829 120.81 44.2829C119.812 44.2829 118.904 44.1224 118.067 43.7835C117.247 43.4625 116.588 42.8205 116.089 41.8574C115.591 40.9122 115.359 39.4854 115.359 37.6306V25.3962H124.942C125.512 25.3962 125.815 25.1644 125.815 24.7007C125.815 24.237 125.53 24.0052 124.942 24.0052H115.359V16.8179C115.359 16.2115 115.252 15.8191 115.021 15.6408C114.807 15.4803 114.522 15.3911 114.201 15.3911C113.934 15.3911 113.667 15.4803 113.418 15.6408C113.168 15.8013 113.044 16.1937 113.044 16.8179V24.0052H110.514C109.98 24.0052 109.713 24.237 109.713 24.7007C109.713 25.1644 109.98 25.3962 110.514 25.3962H113.044V37.6306C113.044 40.7517 113.756 42.9275 115.163 44.1402C116.57 45.3708 118.316 45.9771 120.4 45.9771C121.54 45.9771 122.591 45.8523 123.535 45.5848C124.497 45.3173 125.779 44.7466 127.4 43.8727C127.828 43.6408 128.042 43.3376 128.042 42.9453C128.059 42.4459 127.774 42.1962 127.24 42.1962Z" fill="black"/>
    <path d="M157.717 24.2368C157.592 23.7909 157.254 23.5769 156.684 23.5769C156.221 23.5769 155.918 23.7909 155.793 24.2368C155.651 24.6826 155.597 25.1463 155.597 25.6457V38.754C155.17 40.2521 154.297 41.3935 152.979 42.196C151.643 42.9807 150.164 43.5336 148.49 43.8368C146.833 44.14 145.248 44.2826 143.77 44.2826C141.329 44.2826 139.477 43.9973 138.194 43.4087C136.912 42.838 136.039 41.8393 135.576 40.4126C135.095 38.9858 134.864 37.024 134.864 34.5272V25.6635C134.864 25.1642 134.81 24.6826 134.685 24.2546C134.579 23.8087 134.24 23.5947 133.67 23.5947C133.154 23.5947 132.833 23.8087 132.726 24.2546C132.619 24.7005 132.548 25.1642 132.548 25.6635V34.5272C132.548 37.4164 132.904 39.6992 133.634 41.3756C134.347 43.0521 135.54 44.247 137.179 44.9425C138.818 45.638 141.027 45.9947 143.77 45.9947C144.749 45.9947 145.854 45.9412 147.065 45.8342C148.276 45.7272 149.488 45.4954 150.663 45.1565C151.839 44.8177 152.89 44.2826 153.78 43.6049C154.671 42.9094 155.277 41.982 155.579 40.8049C155.579 44.033 155.259 46.5833 154.635 48.4559C154.012 50.3285 152.943 51.6482 151.447 52.4508C149.951 53.2533 147.867 53.6457 145.213 53.6457C142.63 53.6457 140.688 53.396 139.37 52.8788C138.052 52.3616 137.037 51.8444 136.306 51.3094C136.128 51.2024 135.968 51.131 135.808 51.131C135.22 51.131 134.917 51.4521 134.917 52.0763C134.917 52.3081 134.988 52.4865 135.149 52.6291C135.647 53.0215 136.271 53.4138 137.001 53.8419C137.749 54.2699 138.747 54.6266 140.047 54.9119C141.329 55.1973 143.057 55.34 145.213 55.34C148.223 55.34 150.663 54.8763 152.533 53.931C154.386 53.0036 155.74 51.3986 156.595 49.1336C157.45 46.8686 157.877 43.7654 157.877 39.824V25.6457C157.895 25.1463 157.842 24.6826 157.717 24.2368Z" fill="black"/>
  </g>
  <defs>
    <clipPath id="clip0_139_9294">
      <rect width="157.818" height="56" fill="white" transform="translate(0.0770264)"/>
    </clipPath>
  </defs>
</svg>