<svg width="127" height="36" viewBox="0 0 127 36" fill="none" xmlns="http://www.w3.org/2000/svg">
<g clip-path="url(#clip0_552_15449)">
<mask id="mask0_552_15449" style="mask-type:luminance" maskUnits="userSpaceOnUse" x="0" y="0" width="127" height="36">
<path d="M127 0H0V36H127V0Z" fill="white"/>
</mask>
<g mask="url(#mask0_552_15449)">
<path d="M0.791992 13V12.172L2.44799 11.776V1.62401L0.791992 1.22801V0.400005H10.08V4.09001H9.25199L8.49599 1.60601L4.66199 1.46201V6.07001L8.54999 5.74601V7.34801L4.66199 7.04201V11.776L6.67799 12.172V13H0.791992ZM11.4092 13V12.172L13.0832 11.776V1.62401L11.4092 1.22801V0.400005H16.9352V1.22801L15.2792 1.62401V11.776L16.9352 12.172V13H11.4092ZM18.5108 13V12.172L20.1668 11.776V1.62401L18.5108 1.22801V0.400005H21.4268L28.9328 9.31001V1.62401L27.2768 1.22801V0.400005H31.9028V1.22801L30.2468 1.62401V13H29.1668L21.4268 3.87401V11.776L23.0828 12.172V13H18.5108ZM33.3115 13V12.172L34.9675 11.776V1.62401L33.3115 1.22801V0.400005H38.8375V1.22801L37.1815 1.62401V11.794H41.4115L42.3835 9.11201H43.2115L43.0315 13H33.3115ZM43.4665 13V12.172L45.1585 11.776L49.5325 0.310005H50.8285L54.9325 11.794L56.5885 12.172V13H51.2965V12.172L52.6285 11.866L51.7645 9.43601H47.3545L46.4185 11.812L48.0025 12.172V13H43.4665ZM47.7505 8.37401H51.3685L49.6045 3.46001L47.7505 8.37401ZM57.3408 13V12.172L58.9968 11.776V1.62401L57.3408 1.22801V0.400005H60.2568L67.7628 9.31001V1.62401L66.1068 1.22801V0.400005H70.7328V1.22801L69.0768 1.62401V13H67.9968L60.2568 3.87401V11.776L61.9128 12.172V13H57.3408ZM78.5551 0.130005C79.9471 0.130005 81.1171 0.340006 82.0651 0.760006V4.16201H81.2371L80.4091 1.49801C79.9411 1.39001 79.4011 1.33601 78.7891 1.33601C75.8011 1.33601 74.3071 3.12401 74.3071 6.70001C74.3071 10.276 75.6811 12.064 78.4291 12.064C78.8371 12.064 79.2031 12.052 79.5271 12.028C79.8511 12.004 80.1451 11.968 80.4091 11.92L81.4531 9.07601H82.2811L82.1551 12.478C81.9871 12.574 81.7471 12.67 81.4351 12.766C81.1231 12.862 80.7811 12.946 80.4091 13.018C80.0491 13.09 79.6711 13.15 79.2751 13.198C78.8911 13.246 78.5371 13.27 78.2131 13.27C76.1851 13.27 74.6491 12.706 73.6051 11.578C72.5611 10.45 72.0391 8.82401 72.0391 6.70001C72.0391 4.57601 72.5791 2.95001 73.6591 1.82201C74.7511 0.694005 76.3831 0.130005 78.5551 0.130005ZM83.9893 13V12.172L85.6453 11.776V1.62401L83.9893 1.22801V0.400005H93.3673V4.09001H92.5213L91.7473 1.60601L87.8593 1.46201V6.08801L91.7473 5.74601V7.34801L87.8593 7.02401V11.938L92.0893 11.794L93.0073 9.11201H93.8533L93.7093 13H83.9893ZM1.09799 25.28C1.09799 24.284 1.49399 23.51 2.28599 22.958C3.07799 22.406 4.10399 22.13 5.36399 22.13C6.70799 22.13 7.93799 22.268 9.05399 22.544L8.96399 26H8.15399L7.25399 23.408C6.74999 23.312 6.23999 23.264 5.72399 23.264C4.89599 23.264 4.24199 23.426 3.76199 23.75C3.29399 24.074 3.05999 24.524 3.05999 25.1C3.05999 25.592 3.26999 26.006 3.68999 26.342C4.12199 26.666 4.86599 27.05 5.92199 27.494C6.48599 27.722 6.94799 27.938 7.30799 28.142C7.67999 28.334 8.07599 28.592 8.49599 28.916C8.91599 29.24 9.22799 29.63 9.43199 30.086C9.64799 30.542 9.75599 31.052 9.75599 31.616C9.75599 32.816 9.31199 33.74 8.42399 34.388C7.59599 34.988 6.55799 35.282 5.30999 35.27C4.97399 35.27 4.41599 35.24 3.63599 35.18C2.86799 35.12 2.03399 34.958 1.13399 34.694V31.148H1.96199L2.87999 33.848C3.38399 34.004 3.97199 34.082 4.64399 34.082C5.57999 34.082 6.33599 33.92 6.91199 33.596C7.48799 33.26 7.77599 32.738 7.77599 32.03C7.77599 31.49 7.51799 31.022 7.00199 30.626C6.48599 30.23 5.72999 29.816 4.73399 29.384C3.36599 28.796 2.41799 28.226 1.88999 27.674C1.36199 27.122 1.09799 26.324 1.09799 25.28ZM11.3916 35V34.172L13.0476 33.776V23.624L11.3916 23.228V22.4H20.7696V26.09H19.9236L19.1496 23.606L15.2616 23.462V28.088L19.1496 27.746V29.348L15.2616 29.024V33.938L19.4916 33.794L20.4096 31.112H21.2556L21.1116 35H11.3916ZM22.9229 35V34.172L24.5789 33.776V23.624L22.9229 23.228V22.4H28.0169C28.6649 22.4 29.2589 22.454 29.7989 22.562C30.3389 22.658 30.8609 22.832 31.3649 23.084C31.8809 23.324 32.2829 23.69 32.5709 24.182C32.8709 24.662 33.0209 25.244 33.0209 25.928C33.0209 27.524 32.1929 28.604 30.5369 29.168L33.0389 33.794L34.6229 34.19V35H31.3469L28.3769 29.438H26.7929V33.776L28.4489 34.172V35H22.9229ZM26.7929 28.358H27.8369C28.7129 28.358 29.4149 28.142 29.9429 27.71C30.4829 27.278 30.7529 26.672 30.7529 25.892C30.7529 25.124 30.4889 24.542 29.9609 24.146C29.4329 23.738 28.7249 23.534 27.8369 23.534H26.7929V28.358ZM33.9228 23.228V22.4H39.3768V23.228L37.9008 23.534L40.9608 32.174L43.8408 23.624L42.4188 23.228V22.4H46.7568V23.228L45.1008 23.624L41.1408 35.126H39.7188L35.5248 23.624L33.9228 23.228ZM47.4795 35V34.172L49.1535 33.776V23.624L47.4795 23.228V22.4H53.0055V23.228L51.3495 23.624V33.776L53.0055 34.172V35H47.4795ZM60.9945 22.13C62.3865 22.13 63.5565 22.34 64.5045 22.76V26.162H63.6765L62.8485 23.498C62.3805 23.39 61.8405 23.336 61.2285 23.336C58.2405 23.336 56.7465 25.124 56.7465 28.7C56.7465 32.276 58.1205 34.064 60.8685 34.064C61.2765 34.064 61.6425 34.052 61.9665 34.028C62.2905 34.004 62.5845 33.968 62.8485 33.92L63.8925 31.076H64.7205L64.5945 34.478C64.4265 34.574 64.1865 34.67 63.8745 34.766C63.5625 34.862 63.2205 34.946 62.8485 35.018C62.4885 35.09 62.1105 35.15 61.7145 35.198C61.3305 35.246 60.9765 35.27 60.6525 35.27C58.6245 35.27 57.0885 34.706 56.0445 33.578C55.0005 32.45 54.4785 30.824 54.4785 28.7C54.4785 26.576 55.0185 24.95 56.0985 23.822C57.1905 22.694 58.8225 22.13 60.9945 22.13ZM66.4287 35V34.172L68.0847 33.776V23.624L66.4287 23.228V22.4H75.8067V26.09H74.9607L74.1867 23.606L70.2987 23.462V28.088L74.1867 27.746V29.348L70.2987 29.024V33.938L74.5287 33.794L75.4467 31.112H76.2927L76.1487 35H66.4287ZM78.266 25.28C78.266 24.284 78.662 23.51 79.454 22.958C80.246 22.406 81.272 22.13 82.532 22.13C83.876 22.13 85.106 22.268 86.222 22.544L86.132 26H85.322L84.422 23.408C83.918 23.312 83.408 23.264 82.892 23.264C82.064 23.264 81.41 23.426 80.93 23.75C80.462 24.074 80.228 24.524 80.228 25.1C80.228 25.592 80.438 26.006 80.858 26.342C81.29 26.666 82.034 27.05 83.09 27.494C83.654 27.722 84.116 27.938 84.476 28.142C84.848 28.334 85.244 28.592 85.664 28.916C86.084 29.24 86.396 29.63 86.6 30.086C86.816 30.542 86.924 31.052 86.924 31.616C86.924 32.816 86.48 33.74 85.592 34.388C84.764 34.988 83.726 35.282 82.478 35.27C82.142 35.27 81.584 35.24 80.804 35.18C80.036 35.12 79.202 34.958 78.302 34.694V31.148H79.13L80.048 33.848C80.552 34.004 81.14 34.082 81.812 34.082C82.748 34.082 83.504 33.92 84.08 33.596C84.656 33.26 84.944 32.738 84.944 32.03C84.944 31.49 84.686 31.022 84.17 30.626C83.654 30.23 82.898 29.816 81.902 29.384C80.534 28.796 79.586 28.226 79.058 27.674C78.53 27.122 78.266 26.324 78.266 25.28ZM92.7256 35V34.172L94.3816 33.776V23.624L92.7256 23.228V22.4H98.2516V23.228L96.5956 23.624V33.794H100.826L101.798 31.112H102.626L102.446 35H92.7256ZM102.388 26.216V22.4H113.098V26.216H112.252L111.442 23.606L108.85 23.462V33.776L110.506 34.172V35H104.98V34.172L106.636 33.776V23.462L104.026 23.606L103.234 26.216H102.388ZM114.435 35V34.172L116.091 33.776V23.624L114.435 23.228V22.4H119.115C121.323 22.4 123.057 22.928 124.317 23.984C125.589 25.04 126.225 26.612 126.225 28.7C126.225 30.584 125.571 32.108 124.263 33.272C122.955 34.424 121.239 35 119.115 35H114.435ZM118.305 33.794H119.025C120.621 33.794 121.839 33.392 122.679 32.588C123.531 31.784 123.957 30.488 123.957 28.7C123.957 27.044 123.519 25.784 122.643 24.92C121.779 24.044 120.573 23.606 119.025 23.606H118.305V33.794Z" fill="#697077"/>
</g>
</g>
<defs>
<clipPath id="clip0_552_15449">
<rect width="127" height="36" fill="white"/>
</clipPath>
</defs>
</svg>
