<svg width="87" height="36" viewBox="0 0 87 36" fill="none" xmlns="http://www.w3.org/2000/svg">
<path d="M0.869026 13V12.172L2.52503 11.776V1.624L0.869026 1.228V0.399999H10.157V4.09H9.32903L8.57303 1.606L4.73903 1.462V6.07L8.62703 5.746V7.348L4.73903 7.042V11.776L6.75503 12.172V13H0.869026ZM11.4862 13V12.172L13.1602 11.776V1.624L11.4862 1.228V0.399999H17.0122V1.228L15.3562 1.624V11.776L17.0122 12.172V13H11.4862ZM18.5878 13V12.172L20.2438 11.776V1.624L18.5878 1.228V0.399999H21.5038L29.0098 9.31V1.624L27.3538 1.228V0.399999H31.9798V1.228L30.3238 1.624V13H29.2438L21.5038 3.874V11.776L23.1598 12.172V13H18.5878ZM32.2056 13V12.172L33.8976 11.776L38.2716 0.309999H39.5676L43.6716 11.794L45.3276 12.172V13H40.0356V12.172L41.3676 11.866L40.5036 9.436H36.0936L35.1576 11.812L36.7416 12.172V13H32.2056ZM36.4896 8.374H40.1076L38.3436 3.46L36.4896 8.374ZM46.08 13V12.172L47.736 11.776V1.624L46.08 1.228V0.399999H48.996L56.502 9.31V1.624L54.846 1.228V0.399999H59.472V1.228L57.816 1.624V13H56.736L48.996 3.874V11.776L50.652 12.172V13H46.08ZM67.2942 0.129999C68.6862 0.129999 69.8562 0.34 70.8042 0.76V4.162H69.9762L69.1482 1.498C68.6802 1.39 68.1402 1.336 67.5282 1.336C64.5402 1.336 63.0462 3.124 63.0462 6.7C63.0462 10.276 64.4202 12.064 67.1682 12.064C67.5762 12.064 67.9422 12.052 68.2662 12.028C68.5902 12.004 68.8842 11.968 69.1482 11.92L70.1922 9.076H71.0202L70.8942 12.478C70.7262 12.574 70.4862 12.67 70.1742 12.766C69.8622 12.862 69.5202 12.946 69.1482 13.018C68.7882 13.09 68.4102 13.15 68.0142 13.198C67.6302 13.246 67.2762 13.27 66.9522 13.27C64.9242 13.27 63.3882 12.706 62.3442 11.578C61.3002 10.45 60.7782 8.824 60.7782 6.7C60.7782 4.576 61.3182 2.95 62.3982 1.822C63.4902 0.693999 65.1222 0.129999 67.2942 0.129999ZM72.7284 13V12.172L74.3844 11.776V1.624L72.7284 1.228V0.399999H82.1064V4.09H81.2604L80.4864 1.606L76.5984 1.462V6.088L80.4864 5.746V7.348L76.5984 7.024V11.938L80.8284 11.794L81.7464 9.112H82.5924L82.4484 13H72.7284ZM1.17503 25.28C1.17503 24.284 1.57103 23.51 2.36303 22.958C3.15503 22.406 4.18103 22.13 5.44103 22.13C6.78503 22.13 8.01503 22.268 9.13103 22.544L9.04103 26H8.23103L7.33103 23.408C6.82703 23.312 6.31703 23.264 5.80103 23.264C4.97303 23.264 4.31903 23.426 3.83903 23.75C3.37103 24.074 3.13703 24.524 3.13703 25.1C3.13703 25.592 3.34703 26.006 3.76703 26.342C4.19903 26.666 4.94303 27.05 5.99903 27.494C6.56303 27.722 7.02503 27.938 7.38503 28.142C7.75703 28.334 8.15303 28.592 8.57303 28.916C8.99303 29.24 9.30503 29.63 9.50903 30.086C9.72503 30.542 9.83303 31.052 9.83303 31.616C9.83303 32.816 9.38903 33.74 8.50103 34.388C7.67303 34.988 6.63503 35.282 5.38703 35.27C5.05103 35.27 4.49303 35.24 3.71303 35.18C2.94503 35.12 2.11103 34.958 1.21103 34.694V31.148H2.03903L2.95703 33.848C3.46103 34.004 4.04903 34.082 4.72103 34.082C5.65703 34.082 6.41303 33.92 6.98903 33.596C7.56503 33.26 7.85303 32.738 7.85303 32.03C7.85303 31.49 7.59503 31.022 7.07903 30.626C6.56303 30.23 5.80703 29.816 4.81103 29.384C3.44303 28.796 2.49503 28.226 1.96703 27.674C1.43903 27.122 1.17503 26.324 1.17503 25.28ZM11.4686 35V34.172L13.1246 33.776V23.624L11.4686 23.228V22.4H20.8466V26.09H20.0006L19.2266 23.606L15.3386 23.462V28.088L19.2266 27.746V29.348L15.3386 29.024V33.938L19.5686 33.794L20.4866 31.112H21.3326L21.1886 35H11.4686ZM22.9999 35V34.172L24.6559 33.776V23.624L22.9999 23.228V22.4H28.0939C28.7419 22.4 29.3359 22.454 29.8759 22.562C30.4159 22.658 30.9379 22.832 31.4419 23.084C31.9579 23.324 32.3599 23.69 32.6479 24.182C32.9479 24.662 33.0979 25.244 33.0979 25.928C33.0979 27.524 32.2699 28.604 30.6139 29.168L33.1159 33.794L34.6999 34.19V35H31.4239L28.4539 29.438H26.8699V33.776L28.5259 34.172V35H22.9999ZM26.8699 28.358H27.9139C28.7899 28.358 29.4919 28.142 30.0199 27.71C30.5599 27.278 30.8299 26.672 30.8299 25.892C30.8299 25.124 30.5659 24.542 30.0379 24.146C29.5099 23.738 28.8019 23.534 27.9139 23.534H26.8699V28.358ZM33.9999 23.228V22.4H39.4539V23.228L37.9779 23.534L41.0379 32.174L43.9179 23.624L42.4959 23.228V22.4H46.8339V23.228L45.1779 23.624L41.2179 35.126H39.7959L35.6019 23.624L33.9999 23.228ZM47.5565 35V34.172L49.2305 33.776V23.624L47.5565 23.228V22.4H53.0825V23.228L51.4265 23.624V33.776L53.0825 34.172V35H47.5565ZM61.0716 22.13C62.4636 22.13 63.6336 22.34 64.5816 22.76V26.162H63.7536L62.9256 23.498C62.4576 23.39 61.9176 23.336 61.3056 23.336C58.3176 23.336 56.8236 25.124 56.8236 28.7C56.8236 32.276 58.1976 34.064 60.9456 34.064C61.3536 34.064 61.7196 34.052 62.0436 34.028C62.3676 34.004 62.6616 33.968 62.9256 33.92L63.9696 31.076H64.7976L64.6716 34.478C64.5036 34.574 64.2636 34.67 63.9516 34.766C63.6396 34.862 63.2976 34.946 62.9256 35.018C62.5656 35.09 62.1876 35.15 61.7916 35.198C61.4076 35.246 61.0536 35.27 60.7296 35.27C58.7016 35.27 57.1656 34.706 56.1216 33.578C55.0776 32.45 54.5556 30.824 54.5556 28.7C54.5556 26.576 55.0956 24.95 56.1756 23.822C57.2676 22.694 58.8996 22.13 61.0716 22.13ZM66.5057 35V34.172L68.1617 33.776V23.624L66.5057 23.228V22.4H75.8837V26.09H75.0377L74.2637 23.606L70.3757 23.462V28.088L74.2637 27.746V29.348L70.3757 29.024V33.938L74.6057 33.794L75.5237 31.112H76.3697L76.2257 35H66.5057ZM78.343 25.28C78.343 24.284 78.739 23.51 79.531 22.958C80.323 22.406 81.349 22.13 82.609 22.13C83.953 22.13 85.183 22.268 86.299 22.544L86.209 26H85.399L84.499 23.408C83.995 23.312 83.485 23.264 82.969 23.264C82.141 23.264 81.487 23.426 81.007 23.75C80.539 24.074 80.305 24.524 80.305 25.1C80.305 25.592 80.515 26.006 80.935 26.342C81.367 26.666 82.111 27.05 83.167 27.494C83.731 27.722 84.193 27.938 84.553 28.142C84.925 28.334 85.321 28.592 85.741 28.916C86.161 29.24 86.473 29.63 86.677 30.086C86.893 30.542 87.001 31.052 87.001 31.616C87.001 32.816 86.557 33.74 85.669 34.388C84.841 34.988 83.803 35.282 82.555 35.27C82.219 35.27 81.661 35.24 80.881 35.18C80.113 35.12 79.279 34.958 78.379 34.694V31.148H79.207L80.125 33.848C80.629 34.004 81.217 34.082 81.889 34.082C82.825 34.082 83.581 33.92 84.157 33.596C84.733 33.26 85.021 32.738 85.021 32.03C85.021 31.49 84.763 31.022 84.247 30.626C83.731 30.23 82.975 29.816 81.979 29.384C80.611 28.796 79.663 28.226 79.135 27.674C78.607 27.122 78.343 26.324 78.343 25.28Z" fill="#697077"/>
</svg>
