<svg xmlns="http://www.w3.org/2000/svg" width="204" height="56" viewBox="0 0 204 56" fill="none">
  <g clip-path="url(#clip0_139_9221)">
    <path d="M31.0009 15.6399L24.5878 24.081L31.7135 33.7097H28.3151L22.7242 26.1639L20.7875 28.5208V33.7097H17.9738V15.6399H20.7875V24.7753L27.8035 15.6399H31.0009ZM32.5905 15.6399V18.1064H37.9621V33.7097H40.7575V18.1064H46.1108V15.6399H32.5905ZM49.4361 28.8497H55.6482L53.3826 23.2588C53.2547 22.9482 53.1086 22.5828 52.9441 22.1443C52.7797 21.7058 52.6883 21.3221 52.597 21.0298L52.4874 20.6095C52.2531 21.5108 51.9602 22.3958 51.6104 23.2588L49.4361 28.8497ZM52.798 15.6399L60.7092 33.728H57.7859L56.7445 31.1883H48.3947L47.3533 33.728H44.6492L52.3777 15.6399H52.798Z" fill="#697077"/>
    <path d="M18.1017 40.3054L19.8192 36.2676L21.6462 40.3054H20.9885L20.7693 39.739H18.9422L18.7047 40.3054H18.1017ZM19.1432 39.2274H20.55L20.0384 37.9668C20.0022 37.8837 19.9717 37.7982 19.9471 37.711C19.9529 37.6319 19.9529 37.5525 19.9471 37.4735V37.3821C19.8994 37.5809 19.8383 37.7762 19.7644 37.9668L19.1432 39.2274Z" fill="#697077"/>
    <path d="M23.4733 40.3053V36.304H24.5696C25.1385 36.2799 25.6948 36.4762 26.1226 36.8521C26.317 37.0412 26.4694 37.2691 26.5701 37.5209C26.6709 37.7726 26.7176 38.0428 26.7073 38.3138C26.7222 38.5826 26.6775 38.8514 26.5764 39.1009C26.4753 39.3504 26.3204 39.5745 26.1226 39.7572C25.6968 40.1365 25.1391 40.3333 24.5696 40.3053H23.4733ZM24.0945 39.7572H24.533C24.9519 39.7826 25.3643 39.6451 25.6841 39.3735C25.9467 39.0847 26.0847 38.7038 26.0678 38.3138C26.0792 38.1203 26.0511 37.9266 25.9851 37.7444C25.9192 37.5622 25.8167 37.3953 25.6841 37.2541C25.5293 37.1129 25.3475 37.0045 25.1497 36.9354C24.9518 36.8663 24.7421 36.838 24.533 36.8521H24.0945V39.7572Z" fill="#697077"/>
    <path d="M29.7768 40.342L27.9497 36.3042H28.6257L29.521 38.4602C29.5666 38.5539 29.6033 38.6518 29.6306 38.7525L29.7219 39.0448V39.1727C29.7844 38.9299 29.8638 38.6918 29.9595 38.4602L30.8547 36.3042H31.4577L29.7585 40.342H29.7768Z" fill="#697077"/>
    <path d="M34.9657 40.3601C34.6926 40.3654 34.4211 40.3164 34.1671 40.2161C33.9131 40.1157 33.6815 39.9659 33.4857 39.7754C33.1948 39.4845 32.9967 39.1139 32.9165 38.7104C32.8362 38.3069 32.8774 37.8887 33.0348 37.5086C33.1923 37.1286 33.4589 36.8037 33.8009 36.5752C34.143 36.3466 34.5451 36.2246 34.9565 36.2246C35.3679 36.2246 35.7701 36.3466 36.1121 36.5752C36.4542 36.8037 36.7208 37.1286 36.8782 37.5086C37.0356 37.8887 37.0768 38.3069 36.9966 38.7104C36.9163 39.1139 36.7182 39.4845 36.4273 39.7754C36.0364 40.1557 35.511 40.3659 34.9657 40.3601ZM33.9242 39.3735C34.2005 39.6424 34.5709 39.7929 34.9565 39.7929C35.3421 39.7929 35.7125 39.6424 35.9888 39.3735C36.2471 39.0773 36.3894 38.6976 36.3894 38.3046C36.3894 37.9116 36.2471 37.5319 35.9888 37.2358C35.7125 36.9668 35.3421 36.8163 34.9565 36.8163C34.5709 36.8163 34.2005 36.9668 33.9242 37.2358C33.6659 37.5319 33.5236 37.9116 33.5236 38.3046C33.5236 38.6976 33.6659 39.0773 33.9242 39.3735Z" fill="#697077"/>
    <path d="M40.8489 40.3601C40.3035 40.3659 39.7781 40.1557 39.3872 39.7754C39.1928 39.5863 39.0404 39.3585 38.9397 39.1067C38.8389 38.8549 38.7922 38.5848 38.8025 38.3138C38.7919 38.04 38.8384 37.7671 38.9391 37.5123C39.0397 37.2575 39.1924 37.0264 39.3872 36.8338C39.7781 36.4536 40.3035 36.2434 40.8489 36.2492C41.1634 36.2332 41.4768 36.2989 41.7585 36.4397C42.0402 36.5806 42.2807 36.7919 42.4567 37.0531L41.9817 37.4002C41.8618 37.2109 41.6937 37.0569 41.4946 36.9542C41.2955 36.8514 41.0726 36.8036 40.8489 36.8156C40.6588 36.8128 40.4701 36.8487 40.2943 36.9209C40.1184 36.9931 39.959 37.1003 39.8257 37.2358C39.5674 37.532 39.4251 37.9116 39.4251 38.3046C39.4251 38.6976 39.5674 39.0773 39.8257 39.3735C39.9563 39.5126 40.1152 39.6222 40.2917 39.6947C40.4682 39.7672 40.6582 39.8009 40.8489 39.7937C41.0837 39.8023 41.3168 39.7495 41.5251 39.6406C41.7333 39.5317 41.9096 39.3703 42.0365 39.1725L42.5115 39.5014C42.3375 39.7811 42.0912 40.0086 41.7985 40.1598C41.5058 40.3109 41.1777 40.3801 40.8489 40.3601Z" fill="#697077"/>
    <path d="M43.9549 40.3054L45.6724 36.2676L47.4994 40.3054H46.8417L46.6224 39.739H44.7954L44.5761 40.3054H43.9549ZM44.9963 39.2274H46.3849L45.8916 37.9668C45.8475 37.887 45.8166 37.8006 45.8002 37.711L45.782 37.4735V37.3821C45.7376 37.584 45.6701 37.7802 45.581 37.9668L44.9963 39.2274Z" fill="#697077"/>
    <path d="M49.6919 40.3055V36.8523H48.5043V36.3042H51.5007V36.8523H50.3131V40.3055H49.6919Z" fill="#697077"/>
    <path d="M53.3461 40.3055V36.3042H55.904V36.8523H53.9856V38.4053H55.6848V38.9352H53.9856V39.7574H55.9771V40.3055H53.3461Z" fill="#697077"/>
    <path d="M59.1014 40.3602C58.808 40.3717 58.5173 40.3008 58.2622 40.1554C58.007 40.0101 57.7977 39.7962 57.658 39.538L58.1696 39.2457C58.2622 39.4087 58.3864 39.5516 58.535 39.6659C58.7003 39.7653 58.8903 39.816 59.0831 39.8121C59.2672 39.8161 59.4474 39.7582 59.5947 39.6476C59.6552 39.6044 59.7037 39.5465 59.7356 39.4794C59.7676 39.4123 59.782 39.3382 59.7774 39.264C59.7794 39.1166 59.7274 38.9736 59.6312 38.862C59.4735 38.7437 59.3017 38.6455 59.1197 38.5697L58.8456 38.3687C58.5756 38.2655 58.3321 38.1032 58.133 37.8936C57.9773 37.6969 57.8993 37.4498 57.9138 37.1994C57.9072 37.062 57.9317 36.925 57.9855 36.7984C58.0393 36.6719 58.1209 36.5591 58.2244 36.4685C58.4458 36.273 58.733 36.1686 59.0283 36.1762C59.2585 36.1633 59.4875 36.2167 59.6883 36.3301C59.8891 36.4434 60.0532 36.6119 60.1611 36.8157L59.6678 37.108C59.6071 36.9915 59.5194 36.8913 59.412 36.8157C59.2945 36.7515 59.1621 36.72 59.0283 36.7243C58.9619 36.7199 58.8953 36.7289 58.8325 36.7509C58.7697 36.7729 58.712 36.8074 58.6629 36.8522C58.6161 36.8971 58.5791 36.951 58.5539 37.0107C58.5288 37.0704 58.5161 37.1346 58.5167 37.1994C58.5129 37.2602 58.5224 37.3211 58.5445 37.3779C58.5666 37.4347 58.6007 37.486 58.6446 37.5282C58.7783 37.6475 58.9333 37.7405 59.1014 37.8023L59.3572 37.9119C59.6525 38.0331 59.9198 38.2134 60.1428 38.4418C60.3157 38.6453 60.4068 38.9057 60.3986 39.1726C60.4088 39.329 60.3808 39.4855 60.3172 39.6287C60.2535 39.7719 60.1561 39.8975 60.0332 39.9948C59.7682 40.2018 59.4371 40.3057 59.1014 40.2871" fill="#697077"/>
    <path d="M5.89682 29.2333H9.00286C8.82037 29.472 8.58534 29.6654 8.316 29.7985C8.04667 29.9316 7.75027 30.0008 7.44984 30.0008C7.14941 30.0008 6.85302 29.9316 6.58368 29.7985C6.31434 29.6654 6.07931 29.472 5.89682 29.2333ZM1.54837 27.1504H4.65441C4.47192 27.3891 4.23689 27.5825 3.96755 27.7156C3.69822 27.8487 3.40182 27.918 3.10139 27.918C2.80096 27.918 2.50457 27.8487 2.23523 27.7156C1.96589 27.5825 1.73086 27.3891 1.54837 27.1504ZM0.10498 26.1638L0.287688 26.8033C0.471676 27.4061 0.844406 27.9339 1.35097 28.3089C1.85753 28.6838 2.47114 28.8862 3.10139 28.8862C3.59415 28.8888 4.07907 28.7629 4.50824 28.5208L4.63614 28.9593C4.81999 29.5622 5.19266 30.0901 5.69923 30.4653C6.20581 30.8404 6.81949 31.0429 7.44984 31.0429C8.08019 31.0429 8.69388 30.8404 9.20045 30.4653C9.70702 30.0901 10.0797 29.5622 10.2635 28.9593L10.4463 28.338H4.81885C5.34184 27.9597 5.72681 27.4207 5.91509 26.8033L6.0978 26.1638H0.10498Z" fill="#697077"/>
    <path d="M2.86386 15.7678C2.19019 15.8314 1.56435 16.1436 1.10834 16.6435C0.652335 17.1434 0.398847 17.7952 0.397299 18.4719C0.395358 19.0712 0.593942 19.654 0.961448 20.1275C1.32895 20.6009 1.84426 20.9378 2.42536 21.0846L0.379028 25.36H1.45701L3.28409 21.7058L5.11117 25.36H6.20741L3.94183 21.0481C4.47493 20.8596 4.93668 20.5109 5.26378 20.0496C5.59089 19.5884 5.76732 19.0373 5.76891 18.4719C5.7876 18.2592 5.7876 18.0452 5.76891 17.8324L4.85537 18.344V18.4719C4.87301 18.8328 4.78322 19.1909 4.59737 19.5008C4.41151 19.8107 4.13793 20.0585 3.81122 20.2129C3.48451 20.3674 3.11935 20.4214 2.76192 20.3683C2.40448 20.3152 2.07082 20.1573 1.80313 19.9145C1.53544 19.6718 1.34575 19.3551 1.25803 19.0046C1.17032 18.654 1.18853 18.2853 1.31035 17.9451C1.43218 17.6049 1.65215 17.3085 1.94246 17.0933C2.23276 16.8781 2.58036 16.7538 2.94129 16.7362C3.00071 16.7333 3.06016 16.7333 3.11965 16.7362H15.6534V32.8876H14.5937V17.668H7.41329V18.1065C7.3406 18.8128 7.52909 19.5212 7.94314 20.098C8.15438 20.3289 8.41575 20.5082 8.70715 20.6222C8.99856 20.7363 9.31223 20.7819 9.62405 20.7557H11.579V32.8876H4.45342V33.8742H16.5487V15.7678H2.86386ZM13.6071 32.8876H12.5474V19.8422H9.60578C9.43267 19.8672 9.2561 19.8503 9.09082 19.7931C8.92554 19.7359 8.77634 19.64 8.6557 19.5133C8.46487 19.2679 8.36193 18.9655 8.36337 18.6546H13.6071V32.8876Z" fill="#697077"/>
    <path d="M5.87855 21.1575L5.00156 21.5777L7.92488 27.5157H9.02113L5.87855 21.1575Z" fill="#697077"/>
    <path d="M76.8789 0V56" stroke="#697077" stroke-width="0.13" stroke-miterlimit="10"/>
    <path d="M105.99 30.1878C105.57 30.6085 105.283 31.1444 105.167 31.7279C105.051 32.3113 105.111 32.9161 105.338 33.4657C105.566 34.0153 105.952 34.4851 106.446 34.8156C106.941 35.1461 107.522 35.3225 108.117 35.3225C108.712 35.3225 109.294 35.1461 109.788 34.8156C110.283 34.4851 110.668 34.0153 110.896 33.4657C111.124 32.9161 111.183 32.3113 111.067 31.7279C110.951 31.1444 110.665 30.6085 110.244 30.1878C109.674 29.6353 108.911 29.3264 108.117 29.3264C107.323 29.3264 106.561 29.6353 105.99 30.1878Z" fill="#697077"/>
    <path d="M101.737 25.934C102.157 25.5134 102.444 24.9774 102.56 24.3939C102.676 23.8105 102.616 23.2057 102.389 22.6561C102.161 22.1065 101.775 21.6367 101.281 21.3062C100.786 20.9757 100.205 20.7993 99.6098 20.7993C99.0149 20.7993 98.4333 20.9757 97.9387 21.3062C97.4441 21.6367 97.0585 22.1065 96.8309 22.6561C96.6032 23.2057 96.5437 23.8105 96.6597 24.3939C96.7758 24.9774 97.0622 25.5134 97.4829 25.934C97.7602 26.2168 98.0911 26.4415 98.4563 26.5949C98.8215 26.7483 99.2137 26.8273 99.6098 26.8273C100.006 26.8273 100.398 26.7483 100.763 26.5949C101.128 26.4415 101.459 26.2168 101.737 25.934Z" fill="#697077"/>
    <path d="M103.863 22.6162C105.531 22.6162 106.884 21.2641 106.884 19.5961C106.884 17.9281 105.531 16.5759 103.863 16.5759C102.195 16.5759 100.843 17.9281 100.843 19.5961C100.843 21.2641 102.195 22.6162 103.863 22.6162Z" fill="#697077"/>
    <path d="M101.737 25.9342C101.316 26.3548 101.029 26.8908 100.913 27.4742C100.797 28.0577 100.857 28.6625 101.085 29.2121C101.312 29.7617 101.698 30.2315 102.192 30.562C102.687 30.8925 103.269 31.0689 103.863 31.0689C104.458 31.0689 105.04 30.8925 105.535 30.562C106.029 30.2315 106.415 29.7617 106.642 29.2121C106.87 28.6625 106.93 28.0577 106.814 27.4742C106.697 26.8908 106.411 26.3548 105.99 25.9342C105.42 25.3817 104.657 25.0728 103.863 25.0728C103.07 25.0728 102.307 25.3817 101.737 25.9342Z" fill="#697077"/>
    <path d="M105.99 25.934C106.411 26.3547 106.947 26.6411 107.53 26.7572C108.114 26.8732 108.719 26.8137 109.268 26.586C109.818 26.3584 110.288 25.9728 110.618 25.4782C110.949 24.9836 111.125 24.402 111.125 23.8071C111.125 23.2123 110.949 22.6307 110.618 22.1361C110.288 21.6415 109.818 21.2559 109.268 21.0283C108.719 20.8006 108.114 20.7411 107.53 20.8571C106.947 20.9732 106.411 21.2596 105.99 21.6803C105.438 22.2505 105.129 23.0132 105.129 23.8071C105.129 24.6011 105.438 25.3638 105.99 25.934Z" fill="#697077"/>
    <path d="M97.4829 25.9342C97.0622 25.5135 96.5263 25.2271 95.9428 25.111C95.3593 24.995 94.7546 25.0545 94.205 25.2822C93.6553 25.5098 93.1856 25.8954 92.8551 26.39C92.5246 26.8846 92.3482 27.4662 92.3482 28.0611C92.3482 28.6559 92.5246 29.2375 92.8551 29.7321C93.1856 30.2267 93.6553 30.6123 94.205 30.8399C94.7546 31.0676 95.3593 31.1271 95.9428 31.0111C96.5263 30.895 97.0622 30.6086 97.4829 30.1879C97.7657 29.9106 97.9904 29.5797 98.1438 29.2145C98.2971 28.8493 98.3761 28.4572 98.3761 28.0611C98.3761 27.665 98.2971 27.2728 98.1438 26.9076C97.9904 26.5424 97.7657 26.2115 97.4829 25.9342Z" fill="#697077"/>
    <path d="M114.498 21.7229C113.945 22.2931 113.636 23.0558 113.636 23.8498C113.636 24.6437 113.945 25.4064 114.498 25.9766C114.956 26.4397 115.554 26.7387 116.199 26.8274C116.002 25.0241 115.422 23.2837 114.498 21.7229Z" fill="#697077"/>
    <path d="M101.737 34.4416C101.316 34.8623 101.03 35.3982 100.913 35.9817C100.797 36.5651 100.857 37.1699 101.085 37.7195C101.312 38.2691 101.698 38.7389 102.192 39.0694C102.687 39.3999 103.269 39.5763 103.863 39.5763C104.458 39.5763 105.04 39.3999 105.535 39.0694C106.029 38.7389 106.415 38.2691 106.642 37.7195C106.87 37.1699 106.93 36.5651 106.814 35.9817C106.697 35.3982 106.411 34.8623 105.99 34.4416C105.713 34.1588 105.382 33.9341 105.017 33.7807C104.652 33.6273 104.26 33.5483 103.863 33.5483C103.467 33.5483 103.075 33.6273 102.71 33.7807C102.345 33.9341 102.014 34.1588 101.737 34.4416Z" fill="#697077"/>
    <path d="M110.244 25.9341C109.823 26.3548 109.537 26.8907 109.421 27.4742C109.305 28.0576 109.364 28.6624 109.592 29.212C109.82 29.7616 110.205 30.2314 110.7 30.5619C111.195 30.8924 111.776 31.0688 112.371 31.0688C112.966 31.0688 113.547 30.8924 114.042 30.5619C114.537 30.2314 114.922 29.7616 115.15 29.212C115.377 28.6624 115.437 28.0576 115.321 27.4742C115.205 26.8907 114.918 26.3548 114.498 25.9341C113.928 25.3817 113.165 25.0728 112.371 25.0728C111.577 25.0728 110.814 25.3817 110.244 25.9341Z" fill="#697077"/>
    <path d="M114.498 21.723C113.441 19.9852 111.982 18.5264 110.244 17.4692C109.965 17.7485 109.743 18.0801 109.592 18.445C109.441 18.81 109.363 19.2011 109.363 19.5961C109.363 19.9911 109.441 20.3822 109.592 20.7471C109.743 21.1121 109.965 21.4437 110.244 21.723C110.523 22.0023 110.855 22.2238 111.22 22.375C111.585 22.5261 111.976 22.6039 112.371 22.6039C112.766 22.6039 113.157 22.5261 113.522 22.375C113.887 22.2238 114.218 22.0023 114.498 21.723Z" fill="#697077"/>
    <path d="M101.737 30.1879C101.316 29.7672 100.78 29.4807 100.197 29.3647C99.6131 29.2486 99.0083 29.3082 98.4587 29.5358C97.9091 29.7635 97.4393 30.149 97.1088 30.6437C96.7783 31.1383 96.6019 31.7198 96.6019 32.3147C96.6019 32.9096 96.7783 33.4911 97.1088 33.9858C97.4393 34.4804 97.9091 34.8659 98.4587 35.0936C99.0083 35.3212 99.6131 35.3808 100.197 35.2648C100.78 35.1487 101.316 34.8622 101.737 34.4416C102.019 34.1643 102.244 33.8333 102.398 33.4681C102.551 33.1029 102.63 32.7108 102.63 32.3147C102.63 31.9186 102.551 31.5265 102.398 31.1613C102.244 30.7961 102.019 30.4652 101.737 30.1879Z" fill="#697077"/>
    <path d="M97.5254 38.6953C99.0766 39.6071 100.8 40.1865 102.587 40.3968C102.481 39.7572 102.184 39.1645 101.737 38.6953C101.464 38.4127 101.136 38.188 100.775 38.0346C100.413 37.8811 100.024 37.802 99.631 37.802C99.2381 37.802 98.8491 37.8811 98.4874 38.0346C98.1257 38.188 97.7985 38.4127 97.5254 38.6953Z" fill="#697077"/>
    <path d="M110.244 38.6954C109.674 38.1429 108.911 37.834 108.117 37.834C107.323 37.834 106.561 38.1429 105.99 38.6954C105.527 39.1535 105.228 39.7515 105.14 40.3968C106.941 40.1933 108.68 39.6136 110.244 38.6954Z" fill="#697077"/>
    <path d="M110.244 17.4693C108.693 16.5575 106.969 15.9781 105.182 15.7678C105.289 16.4074 105.585 17.0001 106.033 17.4693C106.595 18.0214 107.351 18.3307 108.139 18.3307C108.926 18.3307 109.682 18.0214 110.244 17.4693Z" fill="#697077"/>
    <path d="M114.498 34.4416C115.41 32.8904 115.989 31.1666 116.199 29.3796C115.56 29.4864 114.967 29.7828 114.498 30.2304C114.215 30.5035 113.99 30.8306 113.837 31.1923C113.684 31.5541 113.604 31.943 113.604 32.336C113.604 32.7289 113.684 33.1179 113.837 33.4796C113.99 33.8413 114.215 34.1685 114.498 34.4416Z" fill="#697077"/>
    <path d="M110.244 38.6952C111.982 37.638 113.441 36.1792 114.498 34.4415C113.928 33.889 113.165 33.5801 112.371 33.5801C111.577 33.5801 110.814 33.889 110.244 34.4415C109.682 35.0067 109.367 35.7713 109.367 36.5683C109.367 37.3653 109.682 38.1299 110.244 38.6952Z" fill="#697077"/>
    <path d="M93.2717 34.4416C94.3289 36.1794 95.7876 37.6381 97.5254 38.6953C98.0779 38.1251 98.3868 37.3624 98.3868 36.5685C98.3868 35.7745 98.0779 35.0118 97.5254 34.4416C96.9602 33.8796 96.1956 33.5642 95.3986 33.5642C94.6015 33.5642 93.8369 33.8796 93.2717 34.4416Z" fill="#697077"/>
    <path d="M93.2717 34.4416C93.8242 33.8714 94.1331 33.1087 94.1331 32.3148C94.1331 31.5208 93.8242 30.7581 93.2717 30.1879C92.8136 29.7249 92.2155 29.4258 91.5702 29.3372C91.7341 31.1475 92.3166 32.895 93.2717 34.4416Z" fill="#697077"/>
    <path d="M97.5254 17.4693C98.0956 18.0218 98.8584 18.3307 99.6523 18.3307C100.446 18.3307 101.209 18.0218 101.779 17.4693C102.242 17.0112 102.541 16.4131 102.63 15.7678C100.818 15.925 99.0691 16.508 97.5254 17.4693Z" fill="#697077"/>
    <path d="M97.5254 17.4692C95.769 18.5025 94.305 19.9665 93.2717 21.723C93.551 22.0023 93.8826 22.2238 94.2475 22.375C94.6124 22.5261 95.0036 22.6039 95.3986 22.6039C95.7935 22.6039 96.1847 22.5261 96.5496 22.375C96.9145 22.2238 97.2461 22.0023 97.5254 21.723C97.8047 21.4437 98.0263 21.1121 98.1774 20.7471C98.3286 20.3822 98.4064 19.9911 98.4064 19.5961C98.4064 19.2011 98.3286 18.81 98.1774 18.445C98.0263 18.0801 97.8047 17.7485 97.5254 17.4692Z" fill="#697077"/>
    <path d="M93.2717 21.7229C92.3599 23.2741 91.7805 24.9978 91.5702 26.7848C92.2098 26.678 92.8025 26.3816 93.2717 25.9341C93.8238 25.3723 94.1331 24.6161 94.1331 23.8285C94.1331 23.0408 93.8238 22.2847 93.2717 21.7229Z" fill="#697077"/>
    <path d="M121.219 24.2326H122.708C124.111 24.2326 125.005 23.467 125.005 22.2334C125.005 20.9998 124.111 20.2341 122.708 20.2341H120.325V26.9975H121.219V24.2326ZM121.219 20.9998H122.622C123.516 20.9998 124.069 21.4677 124.069 22.2334C124.069 22.9991 123.516 23.467 122.622 23.467H121.219V20.9998Z" fill="#697077"/>
    <path d="M127.897 22.9139L127.94 22.1057H127.769C127.433 22.1248 127.112 22.2506 126.851 22.4647C126.591 22.6789 126.406 22.9703 126.323 23.2967V22.2334H125.557V26.9976H126.366V24.9557C126.327 24.6619 126.348 24.3632 126.429 24.078C126.509 23.7927 126.647 23.5269 126.834 23.2967C126.973 23.16 127.14 23.055 127.323 22.9889C127.507 22.9229 127.703 22.8973 127.897 22.9139Z" fill="#697077"/>
    <path d="M130.279 22.1058C128.918 22.1058 128.067 23.0416 128.067 24.6155C128.028 24.9293 128.056 25.2478 128.149 25.55C128.243 25.8521 128.399 26.1311 128.608 26.3683C128.817 26.6055 129.074 26.7957 129.362 26.9261C129.65 27.0566 129.963 27.1245 130.279 27.1252C131.64 27.1252 132.491 26.1894 132.491 24.6155C132.541 24.2999 132.521 23.9771 132.432 23.6702C132.343 23.3633 132.187 23.0799 131.976 22.8401C131.764 22.6004 131.503 22.4103 131.209 22.2833C130.916 22.1564 130.599 22.0958 130.279 22.1058ZM130.279 26.4021C129.428 26.4021 128.918 25.8065 128.918 24.6155C128.918 23.4245 129.428 22.8289 130.279 22.8289C131.13 22.8289 131.64 23.4244 131.64 24.6155C131.64 25.7639 131.172 26.4021 130.279 26.4021Z" fill="#697077"/>
    <path d="M134.66 27.0826C134.982 27.0792 135.295 26.9803 135.56 26.7985C135.825 26.6167 136.03 26.3603 136.149 26.0618V26.955H136.915V22.2334H136.107V24.7856C136.107 25.764 135.596 26.402 134.831 26.402C134.193 26.402 133.852 25.9767 133.852 25.1685V22.2334H133.044V25.2536C133.044 26.3595 133.469 27.0826 134.66 27.0826Z" fill="#697077"/>
    <path d="M139.339 27.0826C139.665 27.1028 139.989 27.0189 140.265 26.843C140.54 26.6672 140.752 26.4085 140.871 26.1043V26.9975H141.636V20.064H140.828V22.914C140.699 22.6565 140.497 22.4426 140.248 22.2989C139.998 22.1552 139.712 22.0881 139.425 22.1058C138.233 22.1058 137.383 23.1266 137.383 24.6155C137.425 26.1043 138.191 27.0826 139.339 27.0826ZM139.552 22.8289C140.36 22.8289 140.828 23.467 140.828 24.4879V24.7006C140.828 25.7215 140.318 26.3596 139.552 26.3596C138.744 26.3596 138.276 25.6789 138.276 24.573C138.276 23.467 138.744 22.8289 139.552 22.8289Z" fill="#697077"/>
    <path d="M145.082 21.7655C145.09 21.5236 145.076 21.2815 145.039 21.0423H145.082C145.124 21.3048 145.195 21.5616 145.295 21.808L147.081 26.955H147.974L149.761 21.8081C149.846 21.5954 149.931 21.17 149.974 21.0424H150.016C149.98 21.2816 149.965 21.5237 149.974 21.7655V26.9549H150.782V20.2341H149.506L147.719 25.4237C147.633 25.6275 147.576 25.8422 147.549 26.0617C147.522 25.8422 147.465 25.6275 147.379 25.4237L145.592 20.2341H144.316V26.9975H145.125V21.7655H145.082Z" fill="#697077"/>
    <path d="M153.589 27.0825C154.02 27.108 154.448 26.9933 154.808 26.7556C155.169 26.518 155.442 26.1701 155.589 25.7639L154.908 25.4661C154.829 25.7382 154.66 25.9751 154.427 26.1376C154.195 26.3 153.915 26.3783 153.632 26.3594C153.435 26.3644 153.24 26.3273 153.058 26.2503C152.877 26.1734 152.714 26.0584 152.581 25.9133C152.448 25.7682 152.348 25.5962 152.287 25.409C152.226 25.2218 152.206 25.0237 152.228 24.828H155.589V24.2751C155.589 22.8288 154.866 22.1057 153.547 22.1057C152.186 22.1057 151.378 23.0841 151.378 24.6579C151.42 26.2318 152.228 27.0825 153.589 27.0825ZM153.547 22.7438C153.719 22.7322 153.892 22.7591 154.053 22.8225C154.214 22.886 154.358 22.9844 154.476 23.1106C154.594 23.2368 154.683 23.3876 154.736 23.5523C154.788 23.7169 154.804 23.8911 154.78 24.0624V24.1475H152.228C152.21 23.9658 152.23 23.7822 152.289 23.6092C152.347 23.4362 152.442 23.2778 152.567 23.1447C152.692 23.0116 152.844 22.9069 153.013 22.8377C153.183 22.7685 153.364 22.7365 153.547 22.7438Z" fill="#697077"/>
    <path d="M158.992 26.9549H159.8V24.1475C159.8 23.2968 160.183 22.7864 160.863 22.7864C161.459 22.7864 161.757 23.1692 161.757 23.8923V26.9549H162.565V23.8498C162.565 22.7438 162.012 22.0632 161.118 22.0632C160.807 22.0617 160.502 22.1542 160.244 22.3288C159.986 22.5034 159.787 22.7518 159.672 23.0416C159.592 22.7473 159.413 22.4895 159.165 22.3115C158.917 22.1334 158.616 22.0458 158.311 22.0632C158.009 22.0578 157.713 22.1501 157.468 22.3264C157.223 22.5027 157.041 22.7536 156.95 23.0416V22.2334H156.227V26.9975H157.035V24.2326C157.035 23.3818 157.46 22.8288 158.098 22.8288C158.651 22.8288 158.992 23.2117 158.992 23.8922L158.992 26.9549Z" fill="#697077"/>
    <path d="M165.542 27.0827C166.733 27.0827 167.499 26.0618 167.499 24.573C167.499 23.1267 166.733 22.0633 165.585 22.0633C165.268 22.0613 164.957 22.1478 164.686 22.3131C164.415 22.4785 164.196 22.716 164.054 22.9991V20.0215H163.245V26.9125H163.883L164.011 26.1043C164.137 26.4034 164.351 26.6571 164.624 26.8319C164.898 27.0066 165.218 27.0941 165.542 27.0827ZM164.054 24.4879C164.054 23.467 164.522 22.8289 165.33 22.8289C166.18 22.8289 166.648 23.552 166.648 24.6155C166.648 25.6789 166.138 26.402 165.33 26.402C164.522 26.402 164.054 25.764 164.054 24.7856V24.4879Z" fill="#697077"/>
    <path d="M170.179 27.0825C170.61 27.108 171.038 26.9933 171.398 26.7556C171.758 26.518 172.032 26.1701 172.178 25.7639L171.498 25.4661C171.419 25.7382 171.249 25.9751 171.017 26.1376C170.785 26.3 170.504 26.3783 170.222 26.3594C170.025 26.3644 169.829 26.3273 169.648 26.2503C169.467 26.1734 169.304 26.0584 169.171 25.9133C169.038 25.7682 168.938 25.5962 168.877 25.409C168.816 25.2218 168.796 25.0237 168.818 24.828H172.178V24.2751C172.178 22.8288 171.455 22.1057 170.136 22.1057C168.775 22.1057 167.967 23.0841 167.967 24.6579C168.01 26.2318 168.818 27.0825 170.179 27.0825ZM170.136 22.7438C170.309 22.7322 170.482 22.7591 170.642 22.8225C170.803 22.886 170.948 22.9844 171.066 23.1106C171.184 23.2368 171.273 23.3876 171.325 23.5523C171.378 23.7169 171.393 23.8911 171.37 24.0624V24.1475H168.818C168.799 23.9658 168.82 23.7822 168.878 23.6092C168.937 23.4362 169.032 23.2778 169.157 23.1447C169.282 23.0116 169.434 22.9069 169.603 22.8377C169.772 22.7685 169.954 22.7365 170.136 22.7438Z" fill="#697077"/>
    <path d="M173.539 24.9559C173.501 24.662 173.522 24.3634 173.602 24.0781C173.683 23.7929 173.821 23.5271 174.007 23.2969C174.15 23.1649 174.317 23.0631 174.5 22.9973C174.683 22.9315 174.877 22.9032 175.071 22.914H175.113V22.106H174.943C174.607 22.1251 174.285 22.2508 174.025 22.465C173.765 22.6791 173.58 22.9706 173.497 23.297V22.2336H172.731V26.9978H173.539L173.539 24.9559Z" fill="#697077"/>
    <path d="M179.367 22.1058C178.006 22.1058 177.155 23.0416 177.155 24.6155C177.116 24.9293 177.144 25.2478 177.238 25.5499C177.331 25.8521 177.487 26.131 177.696 26.3682C177.905 26.6054 178.162 26.7956 178.45 26.9261C178.738 27.0565 179.051 27.1244 179.367 27.1251C180.728 27.1251 181.579 26.1893 181.579 24.6154C181.622 24.301 181.596 23.9811 181.504 23.6774C181.412 23.3737 181.256 23.0933 181.046 22.8553C180.837 22.6173 180.578 22.4272 180.288 22.2978C179.999 22.1685 179.684 22.103 179.367 22.1058ZM179.367 26.3595C178.516 26.3595 178.006 25.764 178.006 24.5729C178.006 23.3819 178.516 22.7864 179.367 22.7864C180.218 22.7864 180.728 23.3819 180.728 24.5729C180.728 25.764 180.218 26.3595 179.367 26.3595Z" fill="#697077"/>
    <path d="M182.557 26.955H183.365V22.8715H184.557V22.1909H183.365V21.5528C183.365 20.9573 183.578 20.7021 184.046 20.7021C184.217 20.6951 184.389 20.7094 184.557 20.7446V20.064C184.362 20.0119 184.162 19.9833 183.961 19.9789C183.771 19.9711 183.581 20.0034 183.405 20.0739C183.228 20.1443 183.068 20.2513 182.935 20.3879C182.803 20.5244 182.701 20.6874 182.636 20.8662C182.57 21.0449 182.544 21.2354 182.557 21.4252V22.1909H181.664V22.8715H182.557V26.955Z" fill="#697077"/>
    <path d="M143.295 29.4221L141.807 30.0176V31.1661H139.935V29.4647L138.446 30.0602V31.2087H137.638V32.2297H138.446V34.4416C138.446 35.4625 138.957 36.058 140.233 36.058C140.518 36.0466 140.802 36.0182 141.084 35.9729V34.7819C140.945 34.8192 140.801 34.8336 140.658 34.8244C140.19 34.8244 139.978 34.5692 139.978 34.1013V32.2721H141.849V34.484C141.849 35.5049 142.36 36.1005 143.636 36.1005C143.921 36.0891 144.205 36.0607 144.487 36.0154V34.8243C144.348 34.8617 144.204 34.8761 144.061 34.8669C143.593 34.8669 143.381 34.6116 143.381 34.1438V32.3146H144.487V31.2937H143.381V29.4221H143.295Z" fill="#697077"/>
    <path d="M122.112 29.167L119.687 35.8453H121.261L121.772 34.2715H124.239L124.749 35.8453H126.366L123.941 29.167H122.112ZM122.154 33.1655L122.75 31.2938C122.835 30.996 122.92 30.7409 123.005 30.358C123.09 30.7409 123.175 30.9961 123.26 31.2938L123.856 33.1655H122.154Z" fill="#697077"/>
    <path d="M147.932 33.2505H149.591V33.3781C149.586 33.5664 149.544 33.7518 149.465 33.9232C149.387 34.0946 149.275 34.2485 149.136 34.3756C148.997 34.5027 148.834 34.6004 148.656 34.6629C148.479 34.7254 148.29 34.7514 148.102 34.7393C146.996 34.7393 146.401 33.846 146.401 32.4423C146.401 31.0385 146.996 30.1452 148.06 30.1452C148.389 30.1306 148.713 30.2406 148.965 30.4535C149.217 30.6663 149.38 30.9663 149.421 31.2937L150.995 30.9959C150.85 30.3582 150.475 29.7966 149.941 29.4195C149.406 29.0424 148.751 28.8767 148.102 28.9542C147.643 28.9362 147.186 29.0169 146.761 29.191C146.335 29.365 145.953 29.6283 145.638 29.963C145.324 30.2977 145.085 30.6961 144.937 31.1311C144.79 31.5662 144.738 32.0278 144.784 32.4848C144.784 34.6117 145.89 35.9729 147.762 35.9729C148.184 36.0102 148.608 35.9208 148.979 35.7163C149.35 35.5117 149.652 35.2012 149.846 34.8243L149.931 35.8027H151.08V32.102H147.975V33.2505H147.932Z" fill="#697077"/>
    <path d="M135.043 30.9959C134.715 30.9717 134.385 31.0193 134.077 31.1354C133.769 31.2514 133.49 31.4331 133.26 31.6679C133.029 31.9027 132.852 32.1849 132.741 32.4949C132.631 32.8049 132.589 33.1353 132.619 33.4631C132.616 33.7861 132.677 34.1066 132.798 34.4059C132.92 34.7052 133.1 34.9775 133.327 35.2069C133.555 35.4364 133.825 35.6186 134.123 35.7429C134.422 35.8672 134.742 35.9312 135.065 35.9312C135.388 35.9312 135.708 35.8672 136.006 35.7429C136.304 35.6186 136.575 35.4364 136.802 35.2069C137.029 34.9775 137.209 34.7052 137.331 34.4059C137.452 34.1066 137.513 33.7861 137.51 33.4631C137.536 33.1326 137.489 32.8007 137.374 32.4899C137.259 32.1792 137.078 31.897 136.844 31.6627C136.609 31.4284 136.327 31.2475 136.016 31.1324C135.706 31.0173 135.374 30.9707 135.043 30.9959ZM135.043 34.9093C134.448 34.9093 134.107 34.4414 134.107 33.4631C134.107 32.4847 134.448 32.0593 135.043 32.0593C135.639 32.0593 135.979 32.4847 135.979 33.4631C135.979 34.4414 135.639 34.9093 135.043 34.9093Z" fill="#697077"/>
    <path d="M130.237 28.9968H128.705V35.8028H130.237V28.9968Z" fill="#697077"/>
    <path d="M128.195 28.9968H126.663V35.8028H128.195V28.9968Z" fill="#697077"/>
    <path d="M132.278 29.0818H130.704V30.443H132.278V29.0818Z" fill="#697077"/>
    <path d="M132.236 31.1235H130.704V35.8452H132.236V31.1235Z" fill="#697077"/>
    <path d="M188.385 32.9528C188.385 31.5916 187.704 30.9961 186.173 30.9961C184.854 30.9961 184.004 31.6341 183.918 32.6551H185.407C185.405 32.5576 185.424 32.4609 185.463 32.3715C185.502 32.2821 185.56 32.2023 185.633 32.1376C185.705 32.0728 185.791 32.0247 185.885 31.9965C185.978 31.9684 186.076 31.9608 186.173 31.9745C186.641 31.9745 186.854 32.2297 186.854 32.7402V32.9103L185.705 33.0805C185.179 33.1187 184.669 33.2789 184.216 33.5484C184.056 33.663 183.929 33.8175 183.846 33.9966C183.764 34.1756 183.731 34.3731 183.748 34.5693C183.75 34.7717 183.795 34.9715 183.879 35.1554C183.964 35.3393 184.087 35.5031 184.24 35.6358C184.393 35.7686 184.572 35.8673 184.766 35.9255C184.96 35.9836 185.164 35.9998 185.365 35.973C185.68 35.9906 185.994 35.9204 186.272 35.7702C186.55 35.62 186.781 35.3957 186.939 35.1222C186.943 35.3655 186.972 35.6077 187.024 35.8454H188.512C188.415 35.4129 188.372 34.9699 188.385 34.5267V32.9528ZM186.939 34.0588C186.943 34.1866 186.921 34.314 186.873 34.4326C186.825 34.5512 186.752 34.6582 186.66 34.7466C186.567 34.8351 186.457 34.9029 186.337 34.9456C186.216 34.9884 186.088 35.0051 185.96 34.9946C185.881 35.0054 185.801 34.9992 185.724 34.9764C185.647 34.9536 185.576 34.9148 185.516 34.8624C185.456 34.8101 185.407 34.7455 185.374 34.6729C185.34 34.6004 185.323 34.5215 185.322 34.4416C185.322 34.1013 185.577 33.8886 186.13 33.8035L186.939 33.6759V34.0588Z" fill="#697077"/>
    <path d="M181.366 28.9968H179.835V35.8028H181.366V28.9968Z" fill="#697077"/>
    <path d="M183.408 31.1235H181.877V35.8452H183.408V31.1235Z" fill="#697077"/>
    <path d="M183.408 29.0818H181.834V30.443H183.408V29.0818Z" fill="#697077"/>
    <path d="M191.915 30.996C191.581 30.9864 191.251 31.0789 190.969 31.2612C190.688 31.4436 190.469 31.7072 190.342 32.0169V31.1237H188.895V35.8453H190.427V33.2931C190.427 32.5699 190.724 32.1446 191.235 32.1446C191.703 32.1446 191.958 32.4424 191.958 33.1229V35.8453H193.447V32.9102C193.447 31.6767 192.894 30.996 191.915 30.996Z" fill="#697077"/>
    <path d="M201.189 30.9961C200.86 30.9779 200.531 31.0314 200.225 31.1529C199.919 31.2745 199.644 31.4611 199.417 31.6998C199.19 31.9386 199.018 32.2238 198.913 32.5356C198.808 32.8474 198.771 33.1785 198.807 33.5058C198.78 33.8383 198.828 34.1725 198.946 34.4844C199.064 34.7964 199.25 35.0783 199.489 35.3101C199.729 35.5418 200.018 35.7176 200.333 35.8248C200.649 35.9321 200.985 35.9681 201.316 35.9303C201.764 35.956 202.21 35.8536 202.602 35.6352C202.993 35.4167 203.315 35.0912 203.528 34.6967L202.337 34.1863C202.251 34.383 202.107 34.5492 201.925 34.663C201.743 34.7769 201.531 34.8331 201.316 34.8243C201.174 34.8329 201.032 34.8112 200.899 34.7608C200.767 34.7104 200.646 34.6324 200.545 34.5319C200.445 34.4314 200.367 34.3107 200.316 34.1778C200.266 34.0449 200.244 33.9028 200.253 33.761H203.613V33.2931C203.625 32.9773 203.569 32.6625 203.45 32.3699C203.33 32.0773 203.15 31.8136 202.92 31.5962C202.691 31.3788 202.418 31.2129 202.119 31.1094C201.821 31.0059 201.503 30.9673 201.189 30.9961ZM202.039 32.9953H200.253C200.253 32.3147 200.593 31.9319 201.189 31.9319C201.742 31.9319 202.039 32.2722 202.039 32.9953Z" fill="#697077"/>
    <path d="M196.254 32.1446C196.722 32.1446 197.02 32.4424 197.105 32.9953L198.509 32.6975C198.428 32.1878 198.152 31.7297 197.739 31.4201C197.326 31.1104 196.809 30.9736 196.297 31.0385C195.971 31.033 195.648 31.0921 195.345 31.2123C195.042 31.3325 194.766 31.5114 194.533 31.7388C194.3 31.9662 194.114 32.2375 193.986 32.537C193.858 32.8366 193.791 33.1585 193.788 33.4842C193.785 33.8099 193.847 34.1329 193.97 34.4346C194.092 34.7364 194.274 35.0108 194.503 35.2422C194.732 35.4735 195.005 35.6572 195.306 35.7826C195.606 35.908 195.929 35.9726 196.254 35.9728C196.775 36.023 197.295 35.876 197.713 35.561C198.13 35.2459 198.414 34.7857 198.509 34.2713L197.105 33.9735C197.02 34.5265 196.722 34.8668 196.254 34.8668C195.659 34.8668 195.318 34.3563 195.318 33.463C195.361 32.6124 195.701 32.1446 196.254 32.1446Z" fill="#697077"/>
    <path d="M179.324 28.9968H177.793V35.8028H179.324V28.9968Z" fill="#697077"/>
    <path d="M170.562 28.9968H169.03V35.8028H170.562V28.9968Z" fill="#697077"/>
    <path d="M161.714 30.9961C161.432 30.9832 161.153 31.0478 160.905 31.1828C160.658 31.3178 160.452 31.518 160.31 31.7617V28.9968H158.779V35.8028H160.14L160.225 35.0796C160.357 35.3347 160.56 35.5465 160.808 35.6898C161.057 35.8331 161.342 35.9019 161.629 35.8879C162.82 35.8879 163.586 34.9095 163.586 33.4207C163.628 31.9744 162.905 30.9961 161.714 30.9961ZM161.161 34.9095C160.608 34.9095 160.268 34.4416 160.268 33.6759V33.2931C160.268 32.5274 160.608 32.0595 161.119 32.0595C161.714 32.0595 162.012 32.57 162.012 33.4633C162.054 34.3991 161.757 34.9095 161.161 34.9095Z" fill="#697077"/>
    <path d="M168.52 32.9528C168.52 31.5916 167.839 30.9961 166.308 30.9961C164.989 30.9961 164.139 31.6341 164.054 32.6551H165.542C165.54 32.5576 165.559 32.4609 165.598 32.3715C165.637 32.2821 165.695 32.2023 165.768 32.1376C165.841 32.0728 165.927 32.0247 166.02 31.9965C166.113 31.9684 166.212 31.9608 166.308 31.9745C166.776 31.9745 166.989 32.2297 166.989 32.7402V32.9103L165.84 33.0805C165.314 33.1187 164.805 33.2789 164.351 33.5484C164.191 33.663 164.064 33.8175 163.982 33.9966C163.9 34.1756 163.866 34.3731 163.883 34.5693C163.885 34.7717 163.93 34.9715 164.014 35.1554C164.099 35.3393 164.222 35.5031 164.375 35.6358C164.528 35.7686 164.707 35.8673 164.901 35.9254C165.095 35.9836 165.299 35.9998 165.5 35.973C165.815 35.9906 166.129 35.9204 166.407 35.7702C166.685 35.62 166.916 35.3957 167.074 35.1222C167.079 35.3655 167.107 35.6077 167.159 35.8454H168.648C168.55 35.4129 168.507 34.9699 168.52 34.5267L168.52 32.9528ZM167.031 34.0588C167.036 34.1866 167.014 34.314 166.966 34.4326C166.918 34.5512 166.845 34.6582 166.752 34.7466C166.66 34.8351 166.55 34.9029 166.429 34.9456C166.309 34.9884 166.18 35.0051 166.053 34.9946C165.974 35.0054 165.893 34.9992 165.817 34.9764C165.74 34.9536 165.669 34.9148 165.609 34.8624C165.548 34.8101 165.5 34.7455 165.466 34.6729C165.433 34.6004 165.415 34.5215 165.415 34.4416C165.415 34.1013 165.67 33.8886 166.223 33.8035L167.031 33.6759L167.031 34.0588Z" fill="#697077"/>
    <path d="M155.972 30.9959C155.643 30.9717 155.314 31.0193 155.006 31.1354C154.698 31.2514 154.419 31.4331 154.188 31.6679C153.957 31.9027 153.78 32.1849 153.67 32.4949C153.559 32.8049 153.517 33.1353 153.547 33.4631C153.544 33.7861 153.605 34.1066 153.727 34.4059C153.848 34.7052 154.028 34.9775 154.255 35.2069C154.483 35.4364 154.754 35.6186 155.052 35.7429C155.35 35.8672 155.67 35.9312 155.993 35.9312C156.316 35.9312 156.636 35.8672 156.934 35.7429C157.232 35.6186 157.503 35.4364 157.73 35.2069C157.958 34.9775 158.137 34.7052 158.259 34.4059C158.381 34.1066 158.442 33.7861 158.439 33.4631C158.464 33.1326 158.417 32.8007 158.302 32.4899C158.187 32.1792 158.006 31.897 157.772 31.6627C157.538 31.4284 157.255 31.2475 156.945 31.1324C156.634 31.0173 156.302 30.9707 155.972 30.9959ZM155.972 34.9093C155.376 34.9093 155.036 34.4414 155.036 33.4631C155.036 32.4847 155.376 32.0593 155.972 32.0593C156.567 32.0593 156.907 32.4847 156.907 33.4631C156.907 34.4414 156.567 34.9093 155.972 34.9093Z" fill="#697077"/>
    <path d="M153.122 28.9968H151.59V35.8028H153.122V28.9968Z" fill="#697077"/>
    <path d="M173.242 29.167L170.817 35.8453H172.391L172.901 34.2715H175.369L175.879 35.8453H177.495L175.071 29.167H173.242ZM173.284 33.1655L173.88 31.2938C173.965 30.996 174.05 30.7409 174.135 30.358C174.22 30.7409 174.305 30.9961 174.39 31.2938L174.986 33.1655H173.284Z" fill="#697077"/>
  </g>
  <defs>
    <clipPath id="clip0_139_9221">
      <rect width="203.508" height="56" fill="white" transform="translate(0.10498)"/>
    </clipPath>
  </defs>
</svg>