<svg xmlns="http://www.w3.org/2000/svg" width="32" height="32" viewBox="0 0 32 32" fill="none">
  <path d="M19.3916 20.6666L17.267 18.5546C16.5344 17.8285 15.3548 17.8285 14.6254 18.5546L12.8782 20.2892L12.5103 20.6793L2.28351 30.9061C1.89981 31.2898 2.17252 31.9462 2.71478 31.9462H6.34886C7.48094 31.9462 8.56546 31.4959 9.36458 30.6968L15.9478 24.1136L18.0851 26.2509C18.9032 27.069 20.0131 27.5289 21.1706 27.5289H26.2317L19.3821 20.6793L19.3916 20.6666Z" fill="url(#paint0_linear_1_5544)"/>
  <path d="M12.497 11.3366L14.6248 13.4486C15.3541 14.1747 16.5338 14.1747 17.2631 13.4486L19.0104 11.714L19.3783 11.3239L29.6051 1.09712C29.9888 0.713422 29.7161 0.053833 29.1738 0.053833H25.5809C24.4267 0.053833 23.3168 0.513642 22.5018 1.32861L15.944 7.88645L13.7781 5.72059C12.979 4.92147 11.8945 4.47117 10.7656 4.47117H5.66009L12.5097 11.3207L12.497 11.3366Z" fill="url(#paint1_linear_1_5544)"/>
  <path d="M7.83261 16.0018L5.6826 18.1518C4.87397 18.9604 4.41734 20.0608 4.41734 21.2056V26.2857L11.2669 19.4361L11.2796 19.4488L13.3979 17.3146C14.1241 16.5821 14.1241 15.3993 13.3915 14.6699L1.03377 2.33117C0.65324 1.95064 0 2.22018 0 2.75927V6.37115C0 7.53177 0.45029 8.61946 1.2716 9.44077L7.83261 16.0018Z" fill="url(#paint2_linear_1_5544)"/>
  <path d="M30.6363 22.5755L24.0943 16.0018L26.2665 13.82C27.0529 13.0304 27.4937 11.9586 27.4937 10.8456V5.71155L20.6727 12.5643L20.66 12.5516L18.5734 14.6636C17.8536 15.3897 17.8504 16.5599 18.5639 17.2924L20.6631 19.4488L20.6758 19.4361L30.8804 29.6882C31.2546 30.0624 31.892 29.7992 31.892 29.2696V25.6134C31.8888 24.4654 31.4417 23.3873 30.6363 22.5755Z" fill="url(#paint3_linear_1_5544)"/>
  <defs>
    <linearGradient id="paint0_linear_1_5544" x1="9.26256" y1="33.2724" x2="19.9027" y2="23.519" gradientUnits="userSpaceOnUse">
      <stop stop-color="#ACC5FF"/>
      <stop offset="1" stop-color="#497DC5"/>
    </linearGradient>
    <linearGradient id="paint1_linear_1_5544" x1="25.0927" y1="-3.08286" x2="12.3837" y2="8.14835" gradientUnits="userSpaceOnUse">
      <stop stop-color="#ACC5FF"/>
      <stop offset="1" stop-color="#497DC5"/>
    </linearGradient>
    <linearGradient id="paint2_linear_1_5544" x1="9.73787" y1="21.3098" x2="-2.08446" y2="9.48749" gradientUnits="userSpaceOnUse">
      <stop stop-color="#05365F"/>
      <stop offset="1" stop-color="#497DC5"/>
    </linearGradient>
    <linearGradient id="paint3_linear_1_5544" x1="21.9679" y1="10.3599" x2="35.1203" y2="24.5467" gradientUnits="userSpaceOnUse">
      <stop stop-color="#05365F"/>
      <stop offset="1" stop-color="#497DC5"/>
    </linearGradient>
  </defs>
</svg>