<svg width="183" height="80" viewBox="0 0 183 80" fill="none" xmlns="http://www.w3.org/2000/svg">
<rect width="182.892" height="79.8924" transform="translate(0 0.0546875)" fill="white"/>
<path d="M43.3916 44.6675L41.2669 42.5556C40.5344 41.8294 39.3548 41.8294 38.6254 42.5556L36.8781 44.2902L36.5103 44.6802L26.2835 54.907C25.8998 55.2907 26.1725 55.9471 26.7148 55.9471H30.3489C31.4809 55.9471 32.5655 55.4968 33.3646 54.6977L39.9478 48.1145L42.0851 50.2518C42.9032 51.07 44.0131 51.5298 45.1706 51.5298H50.2317L43.3821 44.6802L43.3916 44.6675Z" fill="url(#paint0_linear_1_5466)"/>
<path d="M36.497 35.3375L38.6248 37.4494C39.3542 38.1756 40.5338 38.1756 41.2631 37.4494L43.0104 35.7148L43.3783 35.3248L53.6051 25.098C53.9888 24.7143 53.7161 24.0547 53.1738 24.0547H49.5809C48.4267 24.0547 47.3168 24.5145 46.5018 25.3295L39.944 31.8873L37.7781 29.7214C36.979 28.9223 35.8945 28.472 34.7656 28.472H29.6601L36.5097 35.3216L36.497 35.3375Z" fill="url(#paint1_linear_1_5466)"/>
<path d="M31.8326 40.0027L29.6826 42.1527C28.874 42.9613 28.4173 44.0617 28.4173 45.2064V50.2866L35.2669 43.437L35.2796 43.4497L37.3979 41.3155C38.1241 40.583 38.1241 39.4002 37.3915 38.6708L25.0338 26.3321C24.6532 25.9515 24 26.2211 24 26.7602V30.372C24 31.5327 24.4503 32.6204 25.2716 33.4417L31.8326 40.0027Z" fill="url(#paint2_linear_1_5466)"/>
<path d="M54.6363 46.5763L48.0943 40.0026L50.2665 37.8209C51.0529 37.0313 51.4937 35.9594 51.4937 34.8464V29.7124L44.6727 36.5651L44.66 36.5524L42.5734 38.6644C41.8536 39.3906 41.8504 40.5607 42.5639 41.2932L44.6631 43.4496L44.6758 43.4369L54.8804 53.689C55.2546 54.0632 55.892 53.8 55.892 53.2705V49.6142C55.8888 48.4662 55.4417 47.3881 54.6363 46.5763Z" fill="url(#paint3_linear_1_5466)"/>
<path d="M67.112 46.5009H65.072V35.2609L65.392 35.5809H61.992V33.8009H70.212V35.5809H66.812L67.112 35.2609V46.5009ZM78.7565 46.5009H71.4365V33.8009H78.6565V35.5809H73.1565L73.4765 35.2609V39.4809L73.1565 39.1609H78.2765V40.9209H73.1565L73.4765 40.6209V45.0409L73.1565 44.7209H78.7565V46.5009ZM87.012 35.4809H82.832V44.8209H87.012C87.1853 44.8209 87.272 44.7342 87.272 44.5609V35.7409C87.272 35.5676 87.1853 35.4809 87.012 35.4809ZM80.792 46.5009V33.8009L86.332 33.7009C87.3587 33.6742 88.1187 33.8876 88.612 34.3409C89.1053 34.7809 89.352 35.4876 89.352 36.4609V43.8409C89.352 44.8142 89.0987 45.5209 88.592 45.9609C88.0853 46.4009 87.3187 46.6142 86.292 46.6009L80.792 46.5009ZM101.046 46.5009H99.0062L98.2462 43.1209L98.4862 43.3209H93.2062L93.4462 43.1209L92.5862 46.5009H90.6862L93.5662 35.8009C93.7262 35.2542 93.8862 34.8342 94.0462 34.5409C94.2062 34.2342 94.4329 34.0209 94.7262 33.9009C95.0329 33.7809 95.4529 33.7276 95.9862 33.7409L98.0662 33.8009L101.046 46.5009ZM95.3462 35.7809L93.7862 41.7809L93.6262 41.5809H98.1062L97.9462 41.7809L96.5262 35.5609H95.5862C95.5062 35.5609 95.4529 35.5809 95.4262 35.6209C95.3996 35.6476 95.3729 35.7009 95.3462 35.7809ZM109.288 44.7209V46.5009H102.628V33.8009H104.668V45.0609L104.328 44.7209H109.288ZM112.877 46.5009H110.837V33.8009H112.877V46.5009ZM123.049 43.5009V33.8009H124.829V46.5009H123.409L117.169 36.9009L117.549 36.7809V46.5009H115.789V33.8009H117.209L123.429 43.3609L123.049 43.5009ZM129.791 46.5009H127.751V33.8009H129.791V46.5009Z" fill="#083554"/>
<defs>
<linearGradient id="paint0_linear_1_5466" x1="33.2626" y1="57.2733" x2="43.9027" y2="47.5199" gradientUnits="userSpaceOnUse">
<stop stop-color="#ACC5FF"/>
<stop offset="1" stop-color="#497DC5"/>
</linearGradient>
<linearGradient id="paint1_linear_1_5466" x1="49.0927" y1="20.918" x2="36.3837" y2="32.1492" gradientUnits="userSpaceOnUse">
<stop stop-color="#ACC5FF"/>
<stop offset="1" stop-color="#497DC5"/>
</linearGradient>
<linearGradient id="paint2_linear_1_5466" x1="33.7379" y1="45.3107" x2="21.9155" y2="33.4884" gradientUnits="userSpaceOnUse">
<stop stop-color="#05365F"/>
<stop offset="1" stop-color="#497DC5"/>
</linearGradient>
<linearGradient id="paint3_linear_1_5466" x1="45.9679" y1="34.3608" x2="59.1203" y2="48.5476" gradientUnits="userSpaceOnUse">
<stop stop-color="#05365F"/>
<stop offset="1" stop-color="#497DC5"/>
</linearGradient>
</defs>
</svg>
