<svg xmlns="http://www.w3.org/2000/svg" width="64" height="64" viewBox="0 0 64 64" fill="none">
  <circle cx="32" cy="32" r="32" fill="#E5EDFF"/>
  <path d="M47.6099 48H17" stroke="#607A9E" stroke-width="2" stroke-linecap="round" stroke-linejoin="round"/>
  <path d="M35.0873 24.3479V41.0442C35.0873 41.8126 35.7102 42.4355 36.4786 42.4355H43.4354C44.2039 42.4355 44.8268 41.8126 44.8268 41.0442V24.3479C44.8268 23.5794 44.2039 22.9565 43.4354 22.9565H36.4786C35.7102 22.9565 35.0873 23.5794 35.0873 24.3479Z" fill="#E5EDFF" stroke="#607A9E" stroke-width="2" stroke-linecap="round" stroke-linejoin="round"/>
  <path d="M28.1308 16H21.174C20.4055 16 19.7826 16.6229 19.7826 17.3914V41.0445C19.7826 41.8129 20.4055 42.4359 21.174 42.4359H28.1308C28.8992 42.4359 29.5221 41.8129 29.5221 41.0445V17.3914C29.5221 16.6229 28.8992 16 28.1308 16Z" fill="#E5EDFF" stroke="#607A9E" stroke-width="2" stroke-linecap="round" stroke-linejoin="round"/>
</svg>