<svg xmlns="http://www.w3.org/2000/svg" width="64" height="64" viewBox="0 0 64 64" fill="none">
  <circle cx="32" cy="32" r="32" fill="#E5EDFF"/>
  <path d="M49.1199 31.9467L45.3677 33.8152L40.5066 24.5183L44.3043 22.6194C44.5866 22.4756 44.9142 22.4491 45.2159 22.5459C45.5175 22.6426 45.7687 22.8547 45.9146 23.1359L49.6516 30.2909C49.7273 30.4341 49.7737 30.591 49.7879 30.7524C49.8022 30.9138 49.784 31.0765 49.7345 31.2307C49.6849 31.385 49.605 31.5278 49.4995 31.6508C49.3939 31.7737 49.2649 31.8743 49.1199 31.9467V31.9467Z" stroke="#607A9E" stroke-width="2" stroke-linecap="round" stroke-linejoin="round"/>
  <path d="M18.6316 33.6618L14.8795 31.7781C14.735 31.7073 14.6062 31.6081 14.5008 31.4866C14.3954 31.365 14.3156 31.2235 14.266 31.0704C14.2164 30.9174 14.1981 30.7559 14.2121 30.5956C14.2262 30.4354 14.2723 30.2795 14.3478 30.1375L18.0848 22.9825C18.2309 22.7015 18.4811 22.4887 18.7818 22.3894C19.0826 22.2901 19.4102 22.3121 19.695 22.4508L23.4927 24.3497L18.6316 33.6618Z" stroke="#607A9E" stroke-width="2" stroke-linecap="round" stroke-linejoin="round"/>
  <path d="M45.3677 33.814L42.9371 36.6699L37.3469 42.2602C37.1945 42.4027 37.0099 42.5061 36.8088 42.5617C36.6078 42.6172 36.3963 42.6232 36.1924 42.5792L27.3816 40.3765C27.2206 40.3317 27.0707 40.2541 26.9411 40.1487L18.6316 33.6621" stroke="#607A9E" stroke-width="2" stroke-linecap="round" stroke-linejoin="round"/>
  <path d="M42.9373 36.6704L36.2533 31.8093L34.3088 33.2676C33.4664 33.8963 32.4434 34.236 31.3922 34.236C30.341 34.236 29.3179 33.8963 28.4755 33.2676L27.6552 32.6448C27.5165 32.5393 27.4018 32.4056 27.3186 32.2524C27.2354 32.0993 27.1857 31.9303 27.1728 31.7565C27.1599 31.5827 27.184 31.4082 27.2436 31.2444C27.3032 31.0807 27.3969 30.9315 27.5185 30.8066L33.4733 24.867C33.5852 24.7557 33.7179 24.6675 33.8639 24.6076C34.0099 24.5476 34.1662 24.517 34.324 24.5176H40.5068" stroke="#607A9E" stroke-width="2" stroke-linecap="round" stroke-linejoin="round"/>
  <path d="M23.5835 24.3511L31.3765 22.0725C31.6534 21.9931 31.9495 22.0146 32.212 22.1332L37.468 24.5182" stroke="#607A9E" stroke-width="2" stroke-linecap="round" stroke-linejoin="round"/>
  <path d="M29.5691 45.785L24.9966 44.6305C24.8103 44.5884 24.6377 44.4995 24.4953 44.3722L21.0621 41.3948" stroke="#607A9E" stroke-width="2" stroke-linecap="round" stroke-linejoin="round"/>
</svg>