<svg xmlns="http://www.w3.org/2000/svg" width="64" height="64" viewBox="0 0 64 64" fill="none">
  <circle cx="32" cy="32" r="32" fill="#E5EDFF"/>
  <path d="M45.1391 23.6392H18.8613C18.2016 23.6392 17.6669 24.1739 17.6669 24.8336V43.9447C17.6669 44.6044 18.2016 45.1392 18.8613 45.1392H45.1391C45.7988 45.1392 46.3335 44.6044 46.3335 43.9447V24.8336C46.3335 24.1739 45.7988 23.6392 45.1391 23.6392Z" fill="#E5EDFF" stroke="#607A9E" stroke-width="2" stroke-linecap="round" stroke-linejoin="round"/>
  <path d="M38.0002 44.0002V21.273C38.0002 20.6702 37.7474 20.0921 37.2973 19.6659C36.8472 19.2397 36.2368 19.0002 35.6002 19.0002H28.4002C27.7637 19.0002 27.1533 19.2397 26.7032 19.6659C26.2531 20.0921 26.0002 20.6702 26.0002 21.273V44.0002" stroke="#607A9E" stroke-width="2" stroke-linecap="round" stroke-linejoin="round"/>
</svg>