<svg xmlns="http://www.w3.org/2000/svg" width="64" height="64" viewBox="0 0 64 64" fill="none">
  <circle cx="32" cy="32" r="32" fill="#E5EDFF"/>
  <path d="M32.3194 39.1102C35.6178 39.1102 38.2916 36.4364 38.2916 33.138C38.2916 29.8396 35.6178 27.1658 32.3194 27.1658C29.021 27.1658 26.3472 29.8396 26.3472 33.138C26.3472 36.4364 29.021 39.1102 32.3194 39.1102Z" fill="#E5EDFF" stroke="#607A9E" stroke-width="2" stroke-linecap="round" stroke-linejoin="round"/>
  <path d="M42.4722 29.5564C43.8633 29.5541 45.2358 29.8769 46.48 30.499C47.7243 31.1211 48.806 32.0254 49.6388 33.1397" fill="#E5EDFF"/>
  <path d="M42.4722 29.5564C43.8633 29.5541 45.2358 29.8769 46.48 30.499C47.7243 31.1211 48.806 32.0254 49.6388 33.1397" stroke="#607A9E" stroke-width="2" stroke-linecap="round" stroke-linejoin="round"/>
  <path d="M15 33.1397C15.8328 32.0254 16.9145 31.1211 18.1588 30.499C19.4031 29.8769 20.7755 29.5541 22.1667 29.5564" fill="#E5EDFF"/>
  <path d="M15 33.1397C15.8328 32.0254 16.9145 31.1211 18.1588 30.499C19.4031 29.8769 20.7755 29.5541 22.1667 29.5564" stroke="#607A9E" stroke-width="2" stroke-linecap="round" stroke-linejoin="round"/>
  <path d="M23.7197 44.4862C24.5063 42.8753 25.7295 41.5177 27.25 40.5681C28.7704 39.6185 30.5271 39.115 32.3197 39.115C34.1124 39.115 35.869 39.6185 37.3895 40.5681C38.91 41.5177 40.1331 42.8753 40.9197 44.4862" fill="#E5EDFF"/>
  <path d="M23.7197 44.4862C24.5063 42.8753 25.7295 41.5177 27.25 40.5681C28.7704 39.6185 30.5271 39.115 32.3197 39.115C34.1124 39.115 35.869 39.6185 37.3895 40.5681C38.91 41.5177 40.1331 42.8753 40.9197 44.4862" stroke="#607A9E" stroke-width="2" stroke-linecap="round" stroke-linejoin="round"/>
  <path d="M22.1669 29.5556C21.2601 29.5565 20.3717 29.2993 19.6056 28.8141C18.8395 28.3289 18.2274 27.6357 17.8406 26.8155C17.4539 25.9953 17.3085 25.0819 17.4215 24.1822C17.5346 23.2824 17.9014 22.4334 18.479 21.7344C19.0566 21.0354 19.8213 20.5151 20.6836 20.2345C21.5459 19.9539 22.4702 19.9245 23.3486 20.1497C24.2271 20.3749 25.0232 20.8455 25.6441 21.5064C26.2651 22.1673 26.6851 22.9912 26.8551 23.8819" fill="#E5EDFF"/>
  <path d="M22.1669 29.5556C21.2601 29.5565 20.3717 29.2993 19.6056 28.8141C18.8395 28.3289 18.2274 27.6357 17.8406 26.8155C17.4539 25.9953 17.3085 25.0819 17.4215 24.1822C17.5346 23.2824 17.9014 22.4334 18.479 21.7344C19.0566 21.0354 19.8213 20.5151 20.6836 20.2345C21.5459 19.9539 22.4702 19.9245 23.3486 20.1497C24.2271 20.3749 25.0232 20.8455 25.6441 21.5064C26.2651 22.1673 26.6851 22.9912 26.8551 23.8819" stroke="#607A9E" stroke-width="2" stroke-linecap="round" stroke-linejoin="round"/>
  <path d="M37.7841 23.8819C37.9541 22.9912 38.3741 22.1673 38.995 21.5064C39.6159 20.8455 40.4121 20.3749 41.2905 20.1497C42.1689 19.9245 43.0933 19.9539 43.9556 20.2345C44.8179 20.5151 45.5825 21.0354 46.1602 21.7344C46.7378 22.4334 47.1046 23.2824 47.2176 24.1822C47.3307 25.0819 47.1853 25.9953 46.7985 26.8155C46.4118 27.6357 45.7996 28.3289 45.0335 28.8141C44.2674 29.2993 43.3791 29.5565 42.4723 29.5556" fill="#E5EDFF"/>
  <path d="M37.7841 23.8819C37.9541 22.9912 38.3741 22.1673 38.995 21.5064C39.6159 20.8455 40.4121 20.3749 41.2905 20.1497C42.1689 19.9245 43.0933 19.9539 43.9556 20.2345C44.8179 20.5151 45.5825 21.0354 46.1602 21.7344C46.7378 22.4334 47.1046 23.2824 47.2176 24.1822C47.3307 25.0819 47.1853 25.9953 46.7985 26.8155C46.4118 27.6357 45.7996 28.3289 45.0335 28.8141C44.2674 29.2993 43.3791 29.5565 42.4723 29.5556" stroke="#607A9E" stroke-width="2" stroke-linecap="round" stroke-linejoin="round"/>
</svg>