<svg xmlns="http://www.w3.org/2000/svg" width="25" height="24" viewBox="0 0 25 24" fill="none">
  <g clip-path="url(#clip0_178_11337)">
    <path d="M12.5005 0.47998C6.13807 0.47998 0.980469 5.63758 0.980469 12C0.980469 18.3624 6.13807 23.52 12.5005 23.52C18.8629 23.52 24.0205 18.3624 24.0205 12C24.0205 5.63758 18.8629 0.47998 12.5005 0.47998ZM9.68047 16.7748H7.34767V9.26758H9.68047V16.7748ZM8.49967 8.34598C7.76287 8.34598 7.28647 7.82398 7.28647 7.17838C7.28647 6.51958 7.77727 6.01318 8.52967 6.01318C9.28207 6.01318 9.74287 6.51958 9.75727 7.17838C9.75727 7.82398 9.28207 8.34598 8.49967 8.34598ZM18.2005 16.7748H15.8677V12.6144C15.8677 11.646 15.5293 10.9884 14.6857 10.9884C14.0413 10.9884 13.6585 11.4336 13.4893 11.862C13.4269 12.0144 13.4113 12.2304 13.4113 12.4452V16.7736H11.0773V11.6616C11.0773 10.7244 11.0473 9.94078 11.0161 9.26638H13.0429L13.1497 10.3092H13.1965C13.5037 9.81958 14.2561 9.09718 15.5149 9.09718C17.0497 9.09718 18.2005 10.1256 18.2005 12.336V16.7748V16.7748Z" fill="#3F587D"/>
  </g>
  <defs>
    <clipPath id="clip0_178_11337">
      <rect width="24" height="24" fill="white" transform="translate(0.5)"/>
    </clipPath>
  </defs>
</svg>