<svg xmlns="http://www.w3.org/2000/svg" width="25" height="24" viewBox="0 0 25 24" fill="none">
  <path fill-rule="evenodd" clip-rule="evenodd" d="M24.5 12C24.5 18.6274 19.1274 24 12.5 24C5.87258 24 0.5 18.6274 0.5 12C0.5 5.37258 5.87258 0 12.5 0C19.1274 0 24.5 5.37258 24.5 12ZM12.9292 8.85837C11.762 9.34384 9.42928 10.3486 5.93104 11.8728C5.36298 12.0987 5.0654 12.3197 5.03831 12.5357C4.99253 12.9009 5.44986 13.0447 6.07262 13.2406C6.15733 13.2672 6.2451 13.2948 6.33508 13.324C6.94778 13.5232 7.77197 13.7562 8.20043 13.7655C8.58909 13.7739 9.02287 13.6136 9.50179 13.2848C12.7703 11.0784 14.4575 9.96325 14.5635 9.93921C14.6382 9.92225 14.7417 9.90092 14.8119 9.96328C14.8821 10.0256 14.8752 10.1438 14.8677 10.1754C14.8224 10.3686 13.0273 12.0375 12.0983 12.9012C11.8086 13.1705 11.6032 13.3615 11.5612 13.4051C11.4671 13.5028 11.3713 13.5952 11.2791 13.684C10.7099 14.2328 10.2831 14.6443 11.3028 15.3162C11.7928 15.6391 12.1849 15.9062 12.5761 16.1726C13.0033 16.4635 13.4294 16.7537 13.9808 17.1151C14.1212 17.2072 14.2554 17.3028 14.386 17.396C14.8832 17.7504 15.3299 18.0688 15.8817 18.0181C16.2024 17.9886 16.5336 17.687 16.7018 16.7878C17.0994 14.6626 17.8808 10.0579 18.0614 8.16041C18.0772 7.99417 18.0573 7.78141 18.0413 7.68801C18.0253 7.59462 17.9919 7.46155 17.8705 7.36304C17.7267 7.24638 17.5048 7.22177 17.4055 7.22352C16.9542 7.23147 16.2617 7.47226 12.9292 8.85837Z" fill="#3F587D"/>
</svg>