<svg xmlns="http://www.w3.org/2000/svg" width="25" height="24" viewBox="0 0 25 24" fill="none">
  <path fill-rule="evenodd" clip-rule="evenodd" d="M19.9405 4.55161C18.9697 3.58039 17.8164 2.81077 16.5471 2.28706C15.2777 1.76334 13.9172 1.49587 12.5441 1.50005C6.78125 1.50005 2.09 6.16786 2.08766 11.9063C2.08511 13.7335 2.56676 15.5288 3.48359 17.1094L2 22.5L7.54297 21.053C9.07729 21.8842 10.7948 22.3192 12.5398 22.3186H12.5441C18.3064 22.3186 22.9972 17.6504 23 11.9124C23.0035 10.5439 22.7348 9.18839 22.2095 7.92471C21.6843 6.66103 20.913 5.51442 19.9405 4.55161ZM12.5441 20.5622H12.5403C10.9847 20.5627 9.45739 20.1464 8.11719 19.3566L7.79984 19.1691L4.51062 20.0279L5.38859 16.8361L5.18187 16.508C4.31206 15.1309 3.85121 13.5351 3.85297 11.9063C3.85297 7.1377 7.75344 3.25786 12.5473 3.25786C14.847 3.25375 17.0542 4.16327 18.6833 5.78636C20.3125 7.40944 21.2302 9.61318 21.2347 11.9129C21.2328 16.6819 17.3342 20.5622 12.5441 20.5622ZM17.3108 14.0846C17.0497 13.9543 15.7639 13.3252 15.5258 13.2385C15.2877 13.1518 15.1119 13.1082 14.938 13.3688C14.7641 13.6294 14.263 14.2126 14.1106 14.3883C13.9583 14.5641 13.8059 14.5833 13.5448 14.453C13.2837 14.3227 12.4414 14.0485 11.4434 13.1625C10.6667 12.473 10.1427 11.6218 9.99031 11.3616C9.83797 11.1015 9.9739 10.9604 10.1047 10.831C10.2223 10.7143 10.3658 10.5272 10.4966 10.3754C10.6273 10.2235 10.6709 10.1147 10.7577 9.9413C10.8444 9.76786 10.8012 9.61599 10.7361 9.48614C10.6709 9.3563 10.1483 8.07614 9.93078 7.55536C9.71844 7.04817 9.50328 7.11708 9.34297 7.10911C9.19062 7.10161 9.01484 7.09974 8.84187 7.09974C8.70965 7.10318 8.57954 7.13384 8.4597 7.18981C8.33985 7.24579 8.23283 7.32586 8.14531 7.42505C7.90578 7.68567 7.23078 8.31567 7.23078 9.59442C7.23078 10.8732 8.16828 12.1107 8.29766 12.2841C8.42703 12.4575 10.1398 15.084 12.7606 16.2104C13.2473 16.4188 13.7445 16.6015 14.2503 16.7579C14.8761 16.9557 15.4456 16.928 15.8956 16.861C16.3977 16.7865 17.4425 16.2319 17.6595 15.6244C17.8766 15.0169 17.877 14.4966 17.8119 14.3883C17.7467 14.2801 17.5723 14.2144 17.3108 14.0846Z" fill="#3F587D"/>
</svg>